  0
SECTION
  2
HEADER
  9
$ACADVER
  1
AC1018
  9
$ACADMAINTVER
 70
   104
  9
$DWGCODEPAGE
  3
ANSI_936
  9
$LASTSAVEDBY
  1
Administrator
  9
$INSBASE
 10
0.0
 20
0.0
 30
0.0
  9
$EXTMIN
 10
3.936989999999999
 20
3.245534999999999
 30
0.0
  9
$EXTMAX
 10
9.391415
 20
5.194897967936801
 30
0.0
  9
$LIMMIN
 10
0.0
 20
0.0
  9
$LIMMAX
 10
12.0
 20
9.0
  9
$ORTHOMODE
 70
     0
  9
$REGENMODE
 70
     1
  9
$FILLMODE
 70
     1
  9
$QTEXTMODE
 70
     0
  9
$MIRRTEXT
 70
     0
  9
$LTSCALE
 40
1.0
  9
$ATTMODE
 70
     1
  9
$TEXTSIZE
 40
0.2
  9
$TRACEWID
 40
0.05
  9
$TEXTSTYLE
  7
Standard
  9
$CLAYER
  8
0
  9
$CELTYPE
  6
CONTINUOUS
  9
$CECOLOR
 62
   256
  9
$CELTSCALE
 40
1.0
  9
$DISPSILH
 70
     0
  9
$DIMSCALE
 40
1.0
  9
$DIMASZ
 40
0.18
  9
$DIMEXO
 40
0.0625
  9
$DIMDLI
 40
0.38
  9
$DIMRND
 40
0.0
  9
$DIMDLE
 40
0.0
  9
$DIMEXE
 40
0.18
  9
$DIMTP
 40
0.0
  9
$DIMTM
 40
0.0
  9
$DIMTXT
 40
0.18
  9
$DIMCEN
 40
0.09
  9
$DIMTSZ
 40
0.0
  9
$DIMTOL
 70
     0
  9
$DIMLIM
 70
     0
  9
$DIMTIH
 70
     1
  9
$DIMTOH
 70
     1
  9
$DIMSE1
 70
     0
  9
$DIMSE2
 70
     0
  9
$DIMTAD
 70
     0
  9
$DIMZIN
 70
     0
  9
$DIMBLK
  1

  9
$DIMASO
 70
     1
  9
$DIMSHO
 70
     1
  9
$DIMPOST
  1

  9
$DIMAPOST
  1

  9
$DIMALT
 70
     0
  9
$DIMALTD
 70
     2
  9
$DIMALTF
 40
25.4
  9
$DIMLFAC
 40
1.0
  9
$DIMTOFL
 70
     0
  9
$DIMTVP
 40
0.0
  9
$DIMTIX
 70
     0
  9
$DIMSOXD
 70
     0
  9
$DIMSAH
 70
     0
  9
$DIMBLK1
  1

  9
$DIMBLK2
  1

  9
$DIMSTYLE
  2
Standard
  9
$DIMCLRD
 70
     0
  9
$DIMCLRE
 70
     0
  9
$DIMCLRT
 70
     0
  9
$DIMTFAC
 40
1.0
  9
$DIMGAP
 40
0.09
  9
$DIMJUST
 70
     0
  9
$DIMSD1
 70
     0
  9
$DIMSD2
 70
     0
  9
$DIMTOLJ
 70
     1
  9
$DIMTZIN
 70
     0
  9
$DIMALTZ
 70
     0
  9
$DIMALTTZ
 70
     0
  9
$DIMUPT
 70
     0
  9
$DIMDEC
 70
     4
  9
$DIMTDEC
 70
     4
  9
$DIMALTU
 70
     2
  9
$DIMALTTD
 70
     2
  9
$DIMTXSTY
  7
Standard
  9
$DIMAUNIT
 70
     0
  9
$DIMADEC
 70
     0
  9
$DIMALTRND
 40
0.0
  9
$DIMAZIN
 70
     0
  9
$DIMDSEP
 70
    46
  9
$DIMATFIT
 70
     3
  9
$DIMFRAC
 70
     0
  9
$DIMLDRBLK
  1

  9
$DIMLUNIT
 70
     2
  9
$DIMLWD
 70
    -2
  9
$DIMLWE
 70
    -2
  9
$DIMTMOVE
 70
     0
  9
$LUNITS
 70
     2
  9
$LUPREC
 70
     4
  9
$SKETCHINC
 40
0.1
  9
$FILLETRAD
 40
0.0
  9
$AUNITS
 70
     0
  9
$AUPREC
 70
     0
  9
$MENU
  1
.
  9
$ELEVATION
 40
0.0
  9
$PELEVATION
 40
0.0
  9
$THICKNESS
 40
0.0
  9
$LIMCHECK
 70
     0
  9
$CHAMFERA
 40
0.0
  9
$CHAMFERB
 40
0.0
  9
$CHAMFERC
 40
0.0
  9
$CHAMFERD
 40
0.0
  9
$SKPOLY
 70
     0
  9
$TDCREATE
 40
2456515.765038877
  9
$TDUCREATE
 40
2456515.431705544
  9
$TDUPDATE
 40
2456515.765273970
  9
$TDUUPDATE
 40
2456515.431940637
  9
$TDINDWG
 40
0.0002354630
  9
$TDUSRTIMER
 40
0.0002354630
  9
$USRTIMER
 70
     1
  9
$ANGBASE
 50
0.0
  9
$ANGDIR
 70
     0
  9
$PDMODE
 70
     0
  9
$PDSIZE
 40
0.0
  9
$PLINEWID
 40
0.0
  9
$SPLFRAME
 70
     0
  9
$SPLINETYPE
 70
     6
  9
$SPLINESEGS
 70
     8
  9
$HANDSEED
  5
1762
  9
$SURFTAB1
 70
     6
  9
$SURFTAB2
 70
     6
  9
$SURFTYPE
 70
     6
  9
$SURFU
 70
     6
  9
$SURFV
 70
     6
  9
$UCSBASE
  2

  9
$UCSNAME
  2

  9
$UCSORG
 10
0.0
 20
0.0
 30
0.0
  9
$UCSXDIR
 10
1.0
 20
0.0
 30
0.0
  9
$UCSYDIR
 10
0.0
 20
1.0
 30
0.0
  9
$UCSORTHOREF
  2

  9
$UCSORTHOVIEW
 70
     0
  9
$UCSORGTOP
 10
0.0
 20
0.0
 30
0.0
  9
$UCSORGBOTTOM
 10
0.0
 20
0.0
 30
0.0
  9
$UCSORGLEFT
 10
0.0
 20
0.0
 30
0.0
  9
$UCSORGRIGHT
 10
0.0
 20
0.0
 30
0.0
  9
$UCSORGFRONT
 10
0.0
 20
0.0
 30
0.0
  9
$UCSORGBACK
 10
0.0
 20
0.0
 30
0.0
  9
$PUCSBASE
  2

  9
$PUCSNAME
  2

  9
$PUCSORG
 10
0.0
 20
0.0
 30
0.0
  9
$PUCSXDIR
 10
1.0
 20
0.0
 30
0.0
  9
$PUCSYDIR
 10
0.0
 20
1.0
 30
0.0
  9
$PUCSORTHOREF
  2

  9
$PUCSORTHOVIEW
 70
     0
  9
$PUCSORGTOP
 10
0.0
 20
0.0
 30
0.0
  9
$PUCSORGBOTTOM
 10
0.0
 20
0.0
 30
0.0
  9
$PUCSORGLEFT
 10
0.0
 20
0.0
 30
0.0
  9
$PUCSORGRIGHT
 10
0.0
 20
0.0
 30
0.0
  9
$PUCSORGFRONT
 10
0.0
 20
0.0
 30
0.0
  9
$PUCSORGBACK
 10
0.0
 20
0.0
 30
0.0
  9
$USERI1
 70
     0
  9
$USERI2
 70
     0
  9
$USERI3
 70
     0
  9
$USERI4
 70
     0
  9
$USERI5
 70
     0
  9
$USERR1
 40
0.0
  9
$USERR2
 40
0.0
  9
$USERR3
 40
0.0
  9
$USERR4
 40
0.0
  9
$USERR5
 40
0.0
  9
$WORLDVIEW
 70
     1
  9
$SHADEDGE
 70
     3
  9
$SHADEDIF
 70
    70
  9
$TILEMODE
 70
     1
  9
$MAXACTVP
 70
    64
  9
$PINSBASE
 10
0.0
 20
0.0
 30
0.0
  9
$PLIMCHECK
 70
     0
  9
$PEXTMIN
 10
1.000000000000000E+20
 20
1.000000000000000E+20
 30
1.000000000000000E+20
  9
$PEXTMAX
 10
-1.000000000000000E+20
 20
-1.000000000000000E+20
 30
-1.000000000000000E+20
  9
$PLIMMIN
 10
0.0
 20
0.0
  9
$PLIMMAX
 10
12.0
 20
9.0
  9
$UNITMODE
 70
     0
  9
$VISRETAIN
 70
     1
  9
$PLINEGEN
 70
     0
  9
$PSLTSCALE
 70
     1
  9
$TREEDEPTH
 70
  3020
  9
$CMLSTYLE
  2
Standard
  9
$CMLJUST
 70
     0
  9
$CMLSCALE
 40
1.0
  9
$PROXYGRAPHICS
 70
     1
  9
$MEASUREMENT
 70
     0
  9
$CELWEIGHT
370
    -1
  9
$ENDCAPS
280
     0
  9
$JOINSTYLE
280
     0
  9
$LWDISPLAY
290
     0
  9
$INSUNITS
 70
     0
  9
$HYPERLINKBASE
  1

  9
$STYLESHEET
  1

  9
$XEDIT
290
     1
  9
$CEPSNTYPE
380
     0
  9
$PSTYLEMODE
290
     1
  9
$FINGERPRINTGUID
  2
{1B5DCB48-3C94-4F8B-AF5E-499A172A52E6}
  9
$VERSIONGUID
  2
{FB1651A9-B1C9-4E6F-8CFD-13FB22658B8B}
  9
$EXTNAMES
290
     1
  9
$PSVPSCALE
 40
0.0
  9
$OLESTARTUP
290
     0
  9
$SORTENTS
280
   127
  9
$INDEXCTL
280
     0
  9
$HIDETEXT
280
     0
  9
$XCLIPFRAME
290
     0
  9
$HALOGAP
280
     0
  9
$OBSCOLOR
 70
   257
  9
$OBSLTYPE
280
     0
  9
$INTERSECTIONDISPLAY
280
     0
  9
$INTERSECTIONCOLOR
 70
   257
  9
$DIMASSOC
280
     1
  9
$PROJECTNAME
  1

  0
ENDSEC
  0
SECTION
  2
CLASSES
  0
CLASS
  1
ACDBDICTIONARYWDFLT
  2
AcDbDictionaryWithDefault
  3
ObjectDBX Classes
 90
        0
 91
        1
280
     0
281
     0
  0
CLASS
  1
MATERIAL
  2
AcDbMaterial
  3
ObjectDBX Classes
 90
     1024
 91
        3
280
     0
281
     0
  0
CLASS
  1
VISUALSTYLE
  2
AcDbVisualStyle
  3
ObjectDBX Classes
 90
     4095
 91
       16
280
     0
281
     0
  0
CLASS
  1
TABLESTYLE
  2
AcDbTableStyle
  3
ObjectDBX Classes
 90
     4095
 91
        1
280
     0
281
     0
  0
CLASS
  1
DICTIONARYVAR
  2
AcDbDictionaryVar
  3
ObjectDBX Classes
 90
        0
 91
        1
280
     0
281
     0
  0
ENDSEC
  0
SECTION
  2
TABLES
  0
TABLE
  2
VPORT
  5
8
330
0
100
AcDbSymbolTable
 70
     1
  0
VPORT
  5
3E
330
8
100
AcDbSymbolTableRecord
100
AcDbViewportTableRecord
  2
*Active
 70
     0
 10
0.0
 20
0.0
 11
1.0
 21
1.0
 12
5.519366812116509
 22
4.343306627444276
 13
0.0
 23
0.0
 14
1.0
 24
1.0
 15
0.0
 25
0.0
 16
0.0
 26
0.0
 36
1.0
 17
0.0
 27
0.0
 37
0.0
 40
2.179959658235279
 41
2.109230769230769
 42
50.0
 43
0.0
 44
0.0
 50
0.0
 51
0.0
 71
     0
 72
   100
 73
     1
 74
     1
 75
     0
 76
     0
 77
     0
 78
     0
281
     0
 65
     1
110
0.0
120
0.0
130
0.0
111
1.0
121
0.0
131
0.0
112
0.0
122
1.0
132
0.0
 79
     0
146
0.0
  0
ENDTAB
  0
TABLE
  2
LTYPE
  5
5
330
0
100
AcDbSymbolTable
 70
     3
  0
LTYPE
  5
28
330
5
100
AcDbSymbolTableRecord
100
AcDbLinetypeTableRecord
  2
ByBlock
 70
     0
  3

 72
    65
 73
     0
 40
0.0
  0
LTYPE
  5
29
330
5
100
AcDbSymbolTableRecord
100
AcDbLinetypeTableRecord
  2
ByLayer
 70
     0
  3

 72
    65
 73
     0
 40
0.0
  0
LTYPE
  5
2A
330
5
100
AcDbSymbolTableRecord
100
AcDbLinetypeTableRecord
  2
CONTINUOUS
 70
     0
  3
Solid line
 72
    65
 73
     0
 40
0.0
  0
LTYPE
  5
3A
330
5
100
AcDbSymbolTableRecord
100
AcDbLinetypeTableRecord
  2
BYBLOCK
 70
     0
  3

 72
    65
 73
     0
 40
0.0
  0
LTYPE
  5
3B
330
5
100
AcDbSymbolTableRecord
100
AcDbLinetypeTableRecord
  2
BYLAYER
 70
     0
  3

 72
    65
 73
     0
 40
0.0
  0
ENDTAB
  0
TABLE
  2
LAYER
  5
2
330
0
100
AcDbSymbolTable
 70
     2
  0
LAYER
  5
25
330
2
100
AcDbSymbolTableRecord
100
AcDbLayerTableRecord
  2
0
 70
     0
 62
     7
  6
CONTINUOUS
370
    -3
390
F
  0
LAYER
  5
3C
330
2
100
AcDbSymbolTableRecord
100
AcDbLayerTableRecord
  2
L6-SILK_PHO
 70
     0
 62
     7
  6
CONTINUOUS
370
    -3
390
F
  0
ENDTAB
  0
TABLE
  2
STYLE
  5
3
330
0
100
AcDbSymbolTable
 70
     1
  0
STYLE
  5
26
330
3
100
AcDbSymbolTableRecord
100
AcDbTextStyleTableRecord
  2
Standard
 70
     0
 40
0.0
 41
1.0
 50
0.0
 71
     0
 42
0.2
  3
txt
  4

  0
ENDTAB
  0
TABLE
  2
VIEW
  5
6
330
0
100
AcDbSymbolTable
 70
     0
  0
ENDTAB
  0
TABLE
  2
UCS
  5
7
330
0
100
AcDbSymbolTable
 70
     0
  0
ENDTAB
  0
TABLE
  2
APPID
  5
9
330
0
100
AcDbSymbolTable
 70
     1
  0
APPID
  5
27
330
9
100
AcDbSymbolTableRecord
100
AcDbRegAppTableRecord
  2
ACAD
 70
     0
  0
ENDTAB
  0
TABLE
  2
DIMSTYLE
  5
A
330
0
100
AcDbSymbolTable
 70
     1
100
AcDbDimStyleTable
 71
     0
  0
DIMSTYLE
105
1756
330
A
100
AcDbSymbolTableRecord
100
AcDbDimStyleTableRecord
  2
Standard
 70
     0
340
26
  0
ENDTAB
  0
TABLE
  2
BLOCK_RECORD
  5
1
330
0
100
AcDbSymbolTable
 70
     9
  0
BLOCK_RECORD
  5
36
330
1
100
AcDbSymbolTableRecord
100
AcDbBlockTableRecord
  2
*Model_Space
340
39
  0
BLOCK_RECORD
  5
32
330
1
100
AcDbSymbolTableRecord
100
AcDbBlockTableRecord
  2
*Paper_Space
340
35
  0
BLOCK_RECORD
  5
3F
330
1
100
AcDbSymbolTableRecord
100
AcDbBlockTableRecord
  2
ROUND_50
340
0
  0
BLOCK_RECORD
  5
43
330
1
100
AcDbSymbolTableRecord
100
AcDbBlockTableRecord
  2
ROUND_108
340
0
  0
BLOCK_RECORD
  5
47
330
1
100
AcDbSymbolTableRecord
100
AcDbBlockTableRecord
  2
ROUND_153
340
0
  0
BLOCK_RECORD
  5
4B
330
1
100
AcDbSymbolTableRecord
100
AcDbBlockTableRecord
  2
ROUND_230
340
0
  0
BLOCK_RECORD
  5
4F
330
1
100
AcDbSymbolTableRecord
100
AcDbBlockTableRecord
  2
ROUND_589
340
0
  0
BLOCK_RECORD
  5
53
330
1
100
AcDbSymbolTableRecord
100
AcDbBlockTableRecord
  2
ROUND_590
340
0
  0
BLOCK_RECORD
  5
57
330
1
100
AcDbSymbolTableRecord
100
AcDbBlockTableRecord
  2
ROUND_591
340
0
  0
BLOCK_RECORD
  5
5B
330
1
100
AcDbSymbolTableRecord
100
AcDbBlockTableRecord
  2
ROUND_639
340
0
  0
BLOCK_RECORD
  5
5F
330
1
100
AcDbSymbolTableRecord
100
AcDbBlockTableRecord
  2
ROUND_688
340
0
  0
ENDTAB
  0
ENDSEC
  0
SECTION
  2
BLOCKS
  0
BLOCK
  5
37
330
36
100
AcDbEntity
  8
0
100
AcDbBlockBegin
  2
*Model_Space
 70
     0
 10
0.0
 20
0.0
 30
0.0
  3
*Model_Space
  1

  0
ENDBLK
  5
38
330
36
100
AcDbEntity
  8
0
100
AcDbBlockEnd
  0
BLOCK
  5
33
330
32
100
AcDbEntity
 67
     1
  8
0
100
AcDbBlockBegin
  2
*Paper_Space
 70
     0
 10
0.0
 20
0.0
 30
0.0
  3
*Paper_Space
  1

  0
ENDBLK
  5
34
330
32
100
AcDbEntity
 67
     1
  8
0
100
AcDbBlockEnd
  0
BLOCK
  5
40
330
3F
100
AcDbEntity
  8
0
100
AcDbBlockBegin
  2
ROUND_50
 70
     0
 10
0.0
 20
0.0
 30
0.0
  3
ROUND_50
  1

  0
CIRCLE
  5
41
330
3F
100
AcDbEntity
  8
0
100
AcDbCircle
 10
0.0
 20
0.0
 30
0.0
 40
0.0025
  0
ENDBLK
  5
42
330
3F
100
AcDbEntity
  8
0
100
AcDbBlockEnd
  0
BLOCK
  5
44
330
43
100
AcDbEntity
  8
0
100
AcDbBlockBegin
  2
ROUND_108
 70
     0
 10
0.0
 20
0.0
 30
0.0
  3
ROUND_108
  1

  0
CIRCLE
  5
45
330
43
100
AcDbEntity
  8
0
100
AcDbCircle
 10
0.0
 20
0.0
 30
0.0
 40
0.003
  0
ENDBLK
  5
46
330
43
100
AcDbEntity
  8
0
100
AcDbBlockEnd
  0
BLOCK
  5
48
330
47
100
AcDbEntity
  8
0
100
AcDbBlockBegin
  2
ROUND_153
 70
     0
 10
0.0
 20
0.0
 30
0.0
  3
ROUND_153
  1

  0
CIRCLE
  5
49
330
47
100
AcDbEntity
  8
0
100
AcDbCircle
 10
0.0
 20
0.0
 30
0.0
 40
0.002955
  0
ENDBLK
  5
4A
330
47
100
AcDbEntity
  8
0
100
AcDbBlockEnd
  0
BLOCK
  5
4C
330
4B
100
AcDbEntity
  8
0
100
AcDbBlockBegin
  2
ROUND_230
 70
     0
 10
0.0
 20
0.0
 30
0.0
  3
ROUND_230
  1

  0
CIRCLE
  5
4D
330
4B
100
AcDbEntity
  8
0
100
AcDbCircle
 10
0.0
 20
0.0
 30
0.0
 40
0.003545
  0
ENDBLK
  5
4E
330
4B
100
AcDbEntity
  8
0
100
AcDbBlockEnd
  0
BLOCK
  5
50
330
4F
100
AcDbEntity
  8
0
100
AcDbBlockBegin
  2
ROUND_589
 70
     0
 10
0.0
 20
0.0
 30
0.0
  3
ROUND_589
  1

  0
CIRCLE
  5
51
330
4F
100
AcDbEntity
  8
0
100
AcDbCircle
 10
0.0
 20
0.0
 30
0.0
 40
0.002955
  0
ENDBLK
  5
52
330
4F
100
AcDbEntity
  8
0
100
AcDbBlockEnd
  0
BLOCK
  5
54
330
53
100
AcDbEntity
  8
0
100
AcDbBlockBegin
  2
ROUND_590
 70
     0
 10
0.0
 20
0.0
 30
0.0
  3
ROUND_590
  1

  0
CIRCLE
  5
55
330
53
100
AcDbEntity
  8
0
100
AcDbCircle
 10
0.0
 20
0.0
 30
0.0
 40
0.002955
  0
ENDBLK
  5
56
330
53
100
AcDbEntity
  8
0
100
AcDbBlockEnd
  0
BLOCK
  5
58
330
57
100
AcDbEntity
  8
0
100
AcDbBlockBegin
  2
ROUND_591
 70
     0
 10
0.0
 20
0.0
 30
0.0
  3
ROUND_591
  1

  0
CIRCLE
  5
59
330
57
100
AcDbEntity
  8
0
100
AcDbCircle
 10
0.0
 20
0.0
 30
0.0
 40
0.00197
  0
ENDBLK
  5
5A
330
57
100
AcDbEntity
  8
0
100
AcDbBlockEnd
  0
BLOCK
  5
5C
330
5B
100
AcDbEntity
  8
0
100
AcDbBlockBegin
  2
ROUND_639
 70
     0
 10
0.0
 20
0.0
 30
0.0
  3
ROUND_639
  1

  0
CIRCLE
  5
5D
330
5B
100
AcDbEntity
  8
0
100
AcDbCircle
 10
0.0
 20
0.0
 30
0.0
 40
0.003545
  0
ENDBLK
  5
5E
330
5B
100
AcDbEntity
  8
0
100
AcDbBlockEnd
  0
BLOCK
  5
60
330
5F
100
AcDbEntity
  8
0
100
AcDbBlockBegin
  2
ROUND_688
 70
     0
 10
0.0
 20
0.0
 30
0.0
  3
ROUND_688
  1

  0
CIRCLE
  5
61
330
5F
100
AcDbEntity
  8
0
100
AcDbCircle
 10
0.0
 20
0.0
 30
0.0
 40
0.00002
  0
ENDBLK
  5
62
330
5F
100
AcDbEntity
  8
0
100
AcDbBlockEnd
  0
ENDSEC
  0
SECTION
  2
ENTITIES
  0
LWPOLYLINE
  5
63
330
36
100
AcDbEntity
  8
L6-SILK_PHO
100
AcDbPolyline
 90
        5
 70
     0
 43
0.005
 10
4.455199999999999
 20
4.087469999999999
 10
4.455199999999999
 20
4.559909999999999
 10
4.92764
 20
4.559909999999999
 10
4.92764
 20
4.087469999999999
 10
4.455199999999999
 20
4.087469999999999
  0
LWPOLYLINE
  5
6A
330
36
100
AcDbEntity
  8
L6-SILK_PHO
100
AcDbPolyline
 90
        5
 70
     0
 43
0.005
 10
4.160709999999999
 20
4.226499999999999
 10
4.160709999999999
 20
3.998149999999999
 10
4.263069999999999
 20
3.998149999999999
 10
4.263069999999999
 20
4.226499999999999
 10
4.160709999999999
 20
4.226499999999999
  0
LWPOLYLINE
  5
71
330
36
100
AcDbEntity
  8
L6-SILK_PHO
100
AcDbPolyline
 90
       10
 70
     0
 43
0.005
 10
4.179079999999999
 20
4.100959999999999
 10
4.20408
 20
4.100959999999999
 10
4.208759999999999
 20
4.1021
 10
4.210329999999999
 20
4.103229999999999
 10
4.21189
 20
4.1055
 10
4.21189
 20
4.107779999999999
 10
4.210329999999999
 20
4.11005
 10
4.208759999999999
 20
4.11119
 10
4.20408
 20
4.112319999999999
 10
4.200949999999999
 20
4.112319999999999
  0
LWPOLYLINE
  5
7D
330
36
100
AcDbEntity
  8
L6-SILK_PHO
100
AcDbPolyline
 90
       14
 70
     0
 43
0.005
 10
4.18689
 20
4.089599999999999
 10
4.18533
 20
4.089599999999999
 10
4.182199999999999
 20
4.088459999999999
 10
4.18064
 20
4.08732
 10
4.179079999999999
 20
4.085049999999999
 10
4.179079999999999
 20
4.080499999999999
 10
4.18064
 20
4.07823
 10
4.182199999999999
 20
4.077099999999999
 10
4.18533
 20
4.07596
 10
4.188449999999999
 20
4.07596
 10
4.19158
 20
4.077099999999999
 10
4.196259999999999
 20
4.079369999999999
 10
4.21189
 20
4.09073
 10
4.21189
 20
4.074819999999999
  0
LWPOLYLINE
  5
8D
330
36
100
AcDbEntity
  8
L6-SILK_PHO
100
AcDbPolyline
 90
       18
 70
     0
 43
0.005
 10
4.491869999999999
 20
4.111619999999999
 10
4.49499
 20
4.110479999999999
 10
4.49812
 20
4.108209999999999
 10
4.49968
 20
4.10594
 10
4.49968
 20
4.10139
 10
4.49812
 20
4.09912
 10
4.49499
 20
4.096849999999999
 10
4.491869999999999
 20
4.095709999999999
 10
4.48718
 20
4.09457
 10
4.479369999999999
 20
4.09457
 10
4.47468
 20
4.095709999999999
 10
4.47156
 20
4.096849999999999
 10
4.46843
 20
4.09912
 10
4.46687
 20
4.10139
 10
4.46687
 20
4.10594
 10
4.46843
 20
4.108209999999999
 10
4.47156
 20
4.110479999999999
 10
4.47468
 20
4.111619999999999
  0
LWPOLYLINE
  5
A1
330
36
100
AcDbEntity
  8
L6-SILK_PHO
100
AcDbPolyline
 90
       14
 70
     0
 43
0.005
 10
4.491869999999999
 20
4.12298
 10
4.49343
 20
4.12298
 10
4.496559999999999
 20
4.124119999999999
 10
4.49812
 20
4.125259999999999
 10
4.49968
 20
4.12753
 10
4.49968
 20
4.132069999999999
 10
4.49812
 20
4.13435
 10
4.496559999999999
 20
4.13548
 10
4.49343
 20
4.136619999999999
 10
4.49031
 20
4.136619999999999
 10
4.48718
 20
4.13548
 10
4.48249
 20
4.13321
 10
4.46687
 20
4.12185
 10
4.46687
 20
4.13776
  0
LWPOLYLINE
  5
B1
330
36
100
AcDbEntity
  8
L6-SILK_PHO
100
AcDbPolyline
 90
        5
 70
     0
 43
0.005
 10
4.491869999999999
 20
4.149119999999999
 10
4.49343
 20
4.149119999999999
 10
4.496559999999999
 20
4.15026
 10
4.49812
 20
4.15139
 10
4.49968
 20
4.153659999999999
  0
LWPOLYLINE
  5
B8
330
36
100
AcDbEntity
  8
L6-SILK_PHO
100
AcDbPolyline
 90
       10
 70
     0
 43
0.005
 10
4.49968
 20
4.153659999999999
 10
4.49968
 20
4.158209999999999
 10
4.49812
 20
4.16048
 10
4.496559999999999
 20
4.16162
 10
4.49343
 20
4.162759999999999
 10
4.49031
 20
4.162759999999999
 10
4.48718
 20
4.16162
 10
4.48249
 20
4.159349999999999
 10
4.46687
 20
4.14798
 10
4.46687
 20
4.16389
  0
LWPOLYLINE
  5
C4
330
36
100
AcDbEntity
  8
L6-SILK_PHO
100
AcDbPolyline
 90
        6
 70
     0
 43
0.005
 10
4.49968
 20
4.1798
 10
4.49812
 20
4.17639
 10
4.49499
 20
4.175259999999999
 10
4.491869999999999
 20
4.175259999999999
 10
4.488739999999999
 20
4.17639
 10
4.48718
 20
4.178659999999999
  0
LWPOLYLINE
  5
CC
330
36
100
AcDbEntity
  8
L6-SILK_PHO
100
AcDbPolyline
 90
       24
 70
     0
 43
0.005
 10
4.48718
 20
4.178659999999999
 10
4.485619999999999
 20
4.183209999999999
 10
4.484059999999999
 20
4.186619999999999
 10
4.480929999999999
 20
4.188889999999999
 10
4.477809999999999
 20
4.19003
 10
4.473119999999999
 20
4.19003
 10
4.46999
 20
4.188889999999999
 10
4.46843
 20
4.187759999999999
 10
4.46687
 20
4.18435
 10
4.46687
 20
4.1798
 10
4.46843
 20
4.17639
 10
4.46999
 20
4.175259999999999
 10
4.473119999999999
 20
4.174119999999999
 10
4.477809999999999
 20
4.174119999999999
 10
4.480929999999999
 20
4.175259999999999
 10
4.484059999999999
 20
4.177529999999999
 10
4.485619999999999
 20
4.18094
 10
4.48718
 20
4.18548
 10
4.488739999999999
 20
4.187759999999999
 10
4.491869999999999
 20
4.188889999999999
 10
4.49499
 20
4.188889999999999
 10
4.49812
 20
4.187759999999999
 10
4.49968
 20
4.18435
 10
4.49968
 20
4.1798
  0
LWPOLYLINE
  5
E6
330
36
100
AcDbEntity
  8
L6-SILK_PHO
100
AcDbPolyline
 90
       18
 70
     0
 43
0.005
 10
4.360369999999999
 20
4.1115
 10
4.3635
 20
4.110369999999999
 10
4.366619999999999
 20
4.108089999999999
 10
4.36818
 20
4.105819999999999
 10
4.36818
 20
4.101269999999999
 10
4.366619999999999
 20
4.099
 10
4.3635
 20
4.096729999999999
 10
4.360369999999999
 20
4.09559
 10
4.35568
 20
4.094459999999999
 10
4.347869999999999
 20
4.094459999999999
 10
4.34318
 20
4.09559
 10
4.34006
 20
4.096729999999999
 10
4.33693
 20
4.099
 10
4.335369999999999
 20
4.101269999999999
 10
4.335369999999999
 20
4.105819999999999
 10
4.33693
 20
4.108089999999999
 10
4.34006
 20
4.110369999999999
 10
4.34318
 20
4.1115
  0
LWPOLYLINE
  5
FA
330
36
100
AcDbEntity
  8
L6-SILK_PHO
100
AcDbPolyline
 90
        2
 70
     0
 43
0.005
 10
4.36818
 20
4.13764
 10
4.335369999999999
 20
4.126269999999999
  0
LWPOLYLINE
  5
FE
330
36
100
AcDbEntity
  8
L6-SILK_PHO
100
AcDbPolyline
 90
        2
 70
     0
 43
0.005
 10
4.36818
 20
4.12173
 10
4.36818
 20
4.13764
  0
LWPOLYLINE
  5
102
330
36
100
AcDbEntity
  8
L6-SILK_PHO
100
AcDbPolyline
 90
       18
 70
     0
 43
0.005
 10
4.317719999999999
 20
4.374839999999999
 10
4.32085
 20
4.373709999999999
 10
4.32397
 20
4.37143
 10
4.32553
 20
4.369159999999999
 10
4.32553
 20
4.364609999999999
 10
4.32397
 20
4.36234
 10
4.32085
 20
4.360069999999999
 10
4.317719999999999
 20
4.358929999999999
 10
4.31303
 20
4.3578
 10
4.305219999999999
 20
4.3578
 10
4.30053
 20
4.358929999999999
 10
4.29741
 20
4.360069999999999
 10
4.29428
 20
4.36234
 10
4.29272
 20
4.364609999999999
 10
4.29272
 20
4.369159999999999
 10
4.29428
 20
4.37143
 10
4.29741
 20
4.373709999999999
 10
4.30053
 20
4.374839999999999
  0
LWPOLYLINE
  5
116
330
36
100
AcDbEntity
  8
L6-SILK_PHO
100
AcDbPolyline
 90
       29
 70
     0
 43
0.005
 10
4.32553
 20
4.390749999999999
 10
4.32397
 20
4.38734
 10
4.32085
 20
4.38621
 10
4.317719999999999
 20
4.38621
 10
4.3146
 20
4.38734
 10
4.31303
 20
4.38961
 10
4.311469999999999
 20
4.39416
 10
4.309909999999999
 20
4.397569999999999
 10
4.30678
 20
4.39984
 10
4.303659999999999
 20
4.40098
 10
4.298969999999999
 20
4.40098
 10
4.295849999999999
 20
4.39984
 10
4.29428
 20
4.398709999999999
 10
4.29272
 20
4.395299999999999
 10
4.29272
 20
4.390749999999999
 10
4.29428
 20
4.38734
 10
4.295849999999999
 20
4.38621
 10
4.298969999999999
 20
4.385069999999999
 10
4.303659999999999
 20
4.385069999999999
 10
4.30678
 20
4.38621
 10
4.309909999999999
 20
4.38848
 10
4.311469999999999
 20
4.39189
 10
4.31303
 20
4.39643
 10
4.3146
 20
4.398709999999999
 10
4.317719999999999
 20
4.39984
 10
4.32085
 20
4.39984
 10
4.32397
 20
4.398709999999999
 10
4.32553
 20
4.395299999999999
 10
4.32553
 20
4.390749999999999
  0
LWPOLYLINE
  5
135
330
36
100
AcDbEntity
  8
L6-SILK_PHO
100
AcDbPolyline
 90
        5
 70
     0
 43
0.006
 10
4.16189
 20
4.225799999999999
 10
4.16189
 20
4.112619999999999
 10
4.26189
 20
4.112619999999999
 10
4.26189
 20
4.225799999999999
 10
4.16189
 20
4.225799999999999
  0
LWPOLYLINE
  5
13C
330
36
100
AcDbEntity
  8
L6-SILK_PHO
100
AcDbPolyline
 90
        5
 70
     0
 43
0.00591
 10
5.73674
 20
3.97673
 10
5.61898
 20
3.97673
 10
5.61898
 20
4.03054
 10
5.73674
 20
4.03054
 10
5.73674
 20
3.97673
  0
LWPOLYLINE
  5
143
330
36
100
AcDbEntity
  8
L6-SILK_PHO
100
AcDbPolyline
 90
        4
 70
     0
 43
0.00591
 10
5.685719999999999
 20
4.019909999999999
 10
5.685719999999999
 20
3.98704
 10
5.66922
 20
4.00354
 10
5.685419999999999
 20
4.01974
  0
LWPOLYLINE
  5
149
330
36
100
AcDbEntity
  8
L6-SILK_PHO
100
AcDbPolyline
 90
        2
 70
     0
 43
0.00591
 10
5.66959
 20
4.02033
 10
5.66959
 20
3.98608
  0
LWPOLYLINE
  5
15E
330
36
100
AcDbEntity
  8
L6-SILK_PHO
100
AcDbPolyline
 90
        5
 70
     0
 43
0.00591
 10
6.21706
 20
4.758329999999999
 10
6.21706
 20
4.699279999999999
 10
6.38241
 20
4.699279999999999
 10
6.38241
 20
4.758329999999999
 10
6.21706
 20
4.758329999999999
  0
LWPOLYLINE
  5
165
330
36
100
AcDbEntity
  8
L6-SILK_PHO
100
AcDbPolyline
 90
        4
 70
     0
 43
0.00591
 10
6.38241
 20
4.758329999999999
 10
6.39423
 20
4.758329999999999
 10
6.39423
 20
4.699279999999999
 10
6.38241
 20
4.699279999999999
  0
LWPOLYLINE
  5
16B
330
36
100
AcDbEntity
  8
L6-SILK_PHO
100
AcDbPolyline
 90
        4
 70
     0
 43
0.00591
 10
6.28793
 20
4.74455
 10
6.28793
 20
4.713059999999999
 10
6.303669999999999
 20
4.72881
 10
6.28793
 20
4.74455
  0
LWPOLYLINE
  5
171
330
36
100
AcDbEntity
  8
L6-SILK_PHO
100
AcDbPolyline
 90
        2
 70
     0
 43
0.00591
 10
6.307609999999999
 20
4.74455
 10
6.307609999999999
 20
4.713059999999999
  0
LWPOLYLINE
  5
928
330
36
100
AcDbEntity
  8
L6-SILK_PHO
100
AcDbPolyline
 90
        2
 70
     0
 43
0.00591
 10
6.226969999999999
 20
4.032469999999999
 10
6.20335
 20
4.032469999999999
  0
LWPOLYLINE
  5
92C
330
36
100
AcDbEntity
  8
L6-SILK_PHO
100
AcDbPolyline
 90
        2
 70
     0
 43
0.00591
 10
6.226969999999999
 20
4.048219999999999
 10
6.20335
 20
4.048219999999999
  0
LWPOLYLINE
  5
930
330
36
100
AcDbEntity
  8
L6-SILK_PHO
100
AcDbPolyline
 90
        2
 70
     0
 43
0.00591
 10
5.809059999999999
 20
4.766189999999999
 10
5.785429999999999
 20
4.766189999999999
  0
LWPOLYLINE
  5
934
330
36
100
AcDbEntity
  8
L6-SILK_PHO
100
AcDbPolyline
 90
        2
 70
     0
 43
0.00591
 10
5.809059999999999
 20
4.78194
 10
5.785429999999999
 20
4.78194
  0
LWPOLYLINE
  5
938
330
36
100
AcDbEntity
  8
L6-SILK_PHO
100
AcDbPolyline
 90
        2
 70
     0
 43
0.00591
 10
5.32265
 20
4.192309999999999
 10
5.32265
 20
4.168689999999999
  0
LWPOLYLINE
  5
93C
330
36
100
AcDbEntity
  8
L6-SILK_PHO
100
AcDbPolyline
 90
        2
 70
     0
 43
0.00591
 10
5.306899999999999
 20
4.192309999999999
 10
5.306899999999999
 20
4.168689999999999
  0
LWPOLYLINE
  5
940
330
36
100
AcDbEntity
  8
L6-SILK_PHO
100
AcDbPolyline
 90
        2
 70
     0
 43
0.00591
 10
5.52953
 20
4.40822
 10
5.52953
 20
4.43184
  0
LWPOLYLINE
  5
944
330
36
100
AcDbEntity
  8
L6-SILK_PHO
100
AcDbPolyline
 90
        2
 70
     0
 43
0.00591
 10
5.545279999999999
 20
4.40822
 10
5.545279999999999
 20
4.43184
  0
LWPOLYLINE
  5
948
330
36
100
AcDbEntity
  8
L6-SILK_PHO
100
AcDbPolyline
 90
        4
 70
     0
 43
0.00591
 10
6.51773
 20
4.07979
 10
6.51773
 20
4.10341
 10
6.529539999999999
 20
4.091599999999999
 10
6.51773
 20
4.07979
  0
LWPOLYLINE
  5
94E
330
36
100
AcDbEntity
  8
L6-SILK_PHO
100
AcDbPolyline
 90
        2
 70
     0
 43
0.00591
 10
6.533479999999999
 20
4.07979
 10
6.533479999999999
 20
4.10341
  0
LWPOLYLINE
  5
952
330
36
100
AcDbEntity
  8
L6-SILK_PHO
100
AcDbPolyline
 90
        2
 70
     0
 43
0.00591
 10
5.61803
 20
4.73593
 10
5.61803
 20
4.67593
  0
LWPOLYLINE
  5
956
330
36
100
AcDbEntity
  8
L6-SILK_PHO
100
AcDbPolyline
 90
        2
 70
     0
 43
0.00591
 10
5.57866
 20
4.73593
 10
5.57866
 20
4.67593
  0
LWPOLYLINE
  5
95A
330
36
100
AcDbEntity
  8
L6-SILK_PHO
100
AcDbPolyline
 90
        2
 70
     0
 43
0.00591
 10
5.57866
 20
4.674439999999999
 42
0.8200930000000001
 10
5.61803
 20
4.674439999999999
  0
LWPOLYLINE
  5
95E
330
36
100
AcDbEntity
  8
L6-SILK_PHO
100
AcDbPolyline
 90
        2
 70
     0
 43
0.00591
 10
5.61803
 20
4.737419999999999
 42
0.7805931
 10
5.578669999999999
 20
4.737449999999999
  0
LWPOLYLINE
  5
962
330
36
100
AcDbEntity
  8
L6-SILK_PHO
100
AcDbPolyline
 90
        5
 70
     0
 43
0.00591
 10
5.87295
 20
4.444869999999999
 10
5.794209999999999
 20
4.444869999999999
 10
5.794209999999999
 20
4.405499999999999
 10
5.87295
 20
4.405499999999999
 10
5.87295
 20
4.444869999999999
  0
LWPOLYLINE
  5
969
330
36
100
AcDbEntity
  8
L6-SILK_PHO
100
AcDbPolyline
 90
        5
 70
     0
 43
0.00591
 10
4.41896
 20
4.577059999999999
 10
4.4977
 20
4.577059999999999
 10
4.4977
 20
4.61643
 10
4.41896
 20
4.61643
 10
4.41896
 20
4.577059999999999
  0
LWPOLYLINE
  5
970
330
36
100
AcDbEntity
  8
L6-SILK_PHO
100
AcDbPolyline
 90
        5
 70
     0
 43
0.00591
 10
5.30396
 20
4.41591
 10
5.30396
 20
4.49465
 10
5.26459
 20
4.49465
 10
5.26459
 20
4.41591
 10
5.30396
 20
4.41591
  0
LWPOLYLINE
  5
977
330
36
100
AcDbEntity
  8
L6-SILK_PHO
100
AcDbPolyline
 90
        2
 70
     0
 43
0.00591
 10
5.577659999999999
 20
4.14904
 10
5.577659999999999
 20
4.209039999999999
  0
LWPOLYLINE
  5
97B
330
36
100
AcDbEntity
  8
L6-SILK_PHO
100
AcDbPolyline
 90
        2
 70
     0
 43
0.00591
 10
5.61703
 20
4.14904
 10
5.61703
 20
4.209039999999999
  0
LWPOLYLINE
  5
97F
330
36
100
AcDbEntity
  8
L6-SILK_PHO
100
AcDbPolyline
 90
        2
 70
     0
 43
0.00591
 10
5.61703
 20
4.210539999999999
 42
0.8196813999999999
 10
5.577659999999999
 20
4.210539999999999
  0
LWPOLYLINE
  5
983
330
36
100
AcDbEntity
  8
L6-SILK_PHO
100
AcDbPolyline
 90
        2
 70
     0
 43
0.00591
 10
5.577659999999999
 20
4.147559999999999
 42
0.7804398
 10
5.61703
 20
4.14752
  0
LWPOLYLINE
  5
987
330
36
100
AcDbEntity
  8
L6-SILK_PHO
100
AcDbPolyline
 90
        5
 70
     0
 43
0.00591
 10
5.68538
 20
4.71457
 10
5.76412
 20
4.71457
 10
5.76412
 20
4.75394
 10
5.68538
 20
4.75394
 10
5.68538
 20
4.71457
  0
LWPOLYLINE
  5
98E
330
36
100
AcDbEntity
  8
L6-SILK_PHO
100
AcDbPolyline
 90
        2
 70
     0
 43
0.00591
 10
5.93618
 20
4.541339999999999
 10
5.93618
 20
4.48134
  0
LWPOLYLINE
  5
992
330
36
100
AcDbEntity
  8
L6-SILK_PHO
100
AcDbPolyline
 90
        2
 70
     0
 43
0.00591
 10
5.896809999999999
 20
4.541339999999999
 10
5.896809999999999
 20
4.48134
  0
LWPOLYLINE
  5
996
330
36
100
AcDbEntity
  8
L6-SILK_PHO
100
AcDbPolyline
 90
        2
 70
     0
 43
0.00591
 10
5.896809999999999
 20
4.47984
 42
0.8196813999999999
 10
5.93618
 20
4.47984
  0
LWPOLYLINE
  5
99A
330
36
100
AcDbEntity
  8
L6-SILK_PHO
100
AcDbPolyline
 90
        2
 70
     0
 43
0.00591
 10
5.93618
 20
4.542819999999999
 42
0.7803916
 10
5.896819999999999
 20
4.54286
  0
LWPOLYLINE
  5
99E
330
36
100
AcDbEntity
  8
L6-SILK_PHO
100
AcDbPolyline
 90
        5
 70
     0
 43
0.00591
 10
4.28291
 20
4.467909999999999
 10
4.28291
 20
4.39705
 10
4.314409999999999
 20
4.39705
 10
4.314409999999999
 20
4.467909999999999
 10
4.28291
 20
4.467909999999999
  0
LWPOLYLINE
  5
9A5
330
36
100
AcDbEntity
  8
L6-SILK_PHO
100
AcDbPolyline
 90
        5
 70
     0
 43
0.00591
 10
4.314409999999999
 20
4.32213
 10
4.314409999999999
 20
4.392999999999999
 10
4.282919999999999
 20
4.392999999999999
 10
4.282919999999999
 20
4.32213
 10
4.314409999999999
 20
4.32213
  0
LWPOLYLINE
  5
9AC
330
36
100
AcDbEntity
  8
L6-SILK_PHO
100
AcDbPolyline
 90
        6
 70
     0
 43
0.00591
 10
6.10518
 20
4.69948
 10
6.10518
 20
4.81759
 10
6.05479
 20
4.81759
 10
6.05479
 20
4.71325
 10
6.068569999999999
 20
4.69948
 10
6.10518
 20
4.69948
  0
LWPOLYLINE
  5
9B4
330
36
100
AcDbEntity
  8
L6-SILK_PHO
100
AcDbPolyline
 90
        5
 70
     0
 43
0.00591
 10
5.39416
 20
4.686939999999999
 10
5.4729
 20
4.686939999999999
 10
5.4729
 20
4.726309999999999
 10
5.39416
 20
4.726309999999999
 10
5.39416
 20
4.686939999999999
  0
LWPOLYLINE
  5
9BB
330
36
100
AcDbEntity
  8
L6-SILK_PHO
100
AcDbPolyline
 90
        5
 70
     0
 43
0.00591
 10
5.58613
 20
4.66213
 10
5.50739
 20
4.66213
 10
5.50739
 20
4.622759999999999
 10
5.58613
 20
4.622759999999999
 10
5.58613
 20
4.66213
  0
LWPOLYLINE
  5
9C2
330
36
100
AcDbEntity
  8
L6-SILK_PHO
100
AcDbPolyline
 90
        2
 70
     0
 43
0.00591
 10
5.375219999999999
 20
4.59525
 10
5.375219999999999
 20
4.535249999999999
  0
LWPOLYLINE
  5
9C6
330
36
100
AcDbEntity
  8
L6-SILK_PHO
100
AcDbPolyline
 90
        2
 70
     0
 43
0.00591
 10
5.335849999999999
 20
4.59525
 10
5.335849999999999
 20
4.535249999999999
  0
LWPOLYLINE
  5
9CA
330
36
100
AcDbEntity
  8
L6-SILK_PHO
100
AcDbPolyline
 90
        2
 70
     0
 43
0.00591
 10
5.335849999999999
 20
4.53375
 42
0.8196813999999999
 10
5.375219999999999
 20
4.53375
  0
LWPOLYLINE
  5
9CE
330
36
100
AcDbEntity
  8
L6-SILK_PHO
100
AcDbPolyline
 90
        2
 70
     0
 43
0.00591
 10
5.37523
 20
4.596729999999999
 42
0.7804398
 10
5.33586
 20
4.596769999999999
  0
LWPOLYLINE
  5
9D2
330
36
100
AcDbEntity
  8
L6-SILK_PHO
100
AcDbPolyline
 90
        2
 70
     0
 43
0.00591
 10
4.28113
 20
4.230869999999999
 10
4.28113
 20
4.290869999999999
  0
LWPOLYLINE
  5
9D6
330
36
100
AcDbEntity
  8
L6-SILK_PHO
100
AcDbPolyline
 90
        2
 70
     0
 43
0.00591
 10
4.3205
 20
4.230869999999999
 10
4.3205
 20
4.290869999999999
  0
LWPOLYLINE
  5
9DA
330
36
100
AcDbEntity
  8
L6-SILK_PHO
100
AcDbPolyline
 90
        2
 70
     0
 43
0.00591
 10
4.3205
 20
4.292359999999999
 42
0.8200930000000001
 10
4.28113
 20
4.292359999999999
  0
LWPOLYLINE
  5
9DE
330
36
100
AcDbEntity
  8
L6-SILK_PHO
100
AcDbPolyline
 90
        2
 70
     0
 43
0.00591
 10
4.28113
 20
4.229379999999999
 42
0.7805931
 10
4.32049
 20
4.22935
  0
LWPOLYLINE
  5
9E2
330
36
100
AcDbEntity
  8
L6-SILK_PHO
100
AcDbPolyline
 90
        2
 70
     0
 43
0.00591
 10
4.27193
 20
4.305889999999999
 10
4.16563
 20
4.305889999999999
  0
LWPOLYLINE
  5
9E6
330
36
100
AcDbEntity
  8
L6-SILK_PHO
100
AcDbPolyline
 90
        2
 70
     0
 43
0.00591
 10
4.27193
 20
4.255499999999999
 10
4.16563
 20
4.255499999999999
  0
LWPOLYLINE
  5
9EA
330
36
100
AcDbEntity
  8
L6-SILK_PHO
100
AcDbPolyline
 90
        2
 70
     0
 43
0.00591
 10
4.273229999999999
 20
4.25675
 42
0.3419085
 10
4.27327
 20
4.304
  0
LWPOLYLINE
  5
9EE
330
36
100
AcDbEntity
  8
L6-SILK_PHO
100
AcDbPolyline
 90
        2
 70
     0
 43
0.00591
 10
4.163669999999999
 20
4.30433
 42
0.3330794
 10
4.16363
 20
4.257109999999999
  0
LWPOLYLINE
  5
9F2
330
36
100
AcDbEntity
  8
L6-SILK_PHO
100
AcDbPolyline
 90
        2
 70
     0
 43
0.00591
 10
5.722819999999999
 20
4.827639999999999
 10
5.722819999999999
 20
4.76764
  0
LWPOLYLINE
  5
9F6
330
36
100
AcDbEntity
  8
L6-SILK_PHO
100
AcDbPolyline
 90
        2
 70
     0
 43
0.00591
 10
5.683449999999999
 20
4.827639999999999
 10
5.683449999999999
 20
4.76764
  0
LWPOLYLINE
  5
9FA
330
36
100
AcDbEntity
  8
L6-SILK_PHO
100
AcDbPolyline
 90
        2
 70
     0
 43
0.00591
 10
5.683449999999999
 20
4.76614
 42
0.8196813999999999
 10
5.722819999999999
 20
4.76614
  0
LWPOLYLINE
  5
9FE
330
36
100
AcDbEntity
  8
L6-SILK_PHO
100
AcDbPolyline
 90
        2
 70
     0
 43
0.00591
 10
5.722819999999999
 20
4.829119999999999
 42
0.7803916
 10
5.68346
 20
4.829159999999999
  0
LWPOLYLINE
  5
A02
330
36
100
AcDbEntity
  8
L6-SILK_PHO
100
AcDbPolyline
 90
        2
 70
     0
 43
0.00591
 10
5.45608
 20
4.14803
 10
5.56238
 20
4.14803
  0
LWPOLYLINE
  5
A06
330
36
100
AcDbEntity
  8
L6-SILK_PHO
100
AcDbPolyline
 90
        2
 70
     0
 43
0.00591
 10
5.45608
 20
4.19843
 10
5.56238
 20
4.19843
  0
LWPOLYLINE
  5
A0A
330
36
100
AcDbEntity
  8
L6-SILK_PHO
100
AcDbPolyline
 90
        2
 70
     0
 43
0.00591
 10
5.454769999999999
 20
4.197169999999999
 42
0.3418513
 10
5.45473
 20
4.14993
  0
LWPOLYLINE
  5
A0E
330
36
100
AcDbEntity
  8
L6-SILK_PHO
100
AcDbPolyline
 90
        2
 70
     0
 43
0.00591
 10
5.564329999999999
 20
4.149589999999999
 42
0.3331647
 10
5.564369999999999
 20
4.19681
  0
LWPOLYLINE
  5
A12
330
36
100
AcDbEntity
  8
L6-SILK_PHO
100
AcDbPolyline
 90
        5
 70
     0
 43
0.00591
 10
5.36614
 20
4.21334
 10
5.36614
 20
4.29208
 10
5.326769999999999
 20
4.29208
 10
5.326769999999999
 20
4.21334
 10
5.36614
 20
4.21334
  0
LWPOLYLINE
  5
A19
330
36
100
AcDbEntity
  8
L6-SILK_PHO
100
AcDbPolyline
 90
        5
 70
     0
 43
0.00591
 10
6.248009999999999
 20
4.106889999999999
 10
6.248009999999999
 20
4.02815
 10
6.28738
 20
4.02815
 10
6.28738
 20
4.106889999999999
 10
6.248009999999999
 20
4.106889999999999
  0
LWPOLYLINE
  5
A20
330
36
100
AcDbEntity
  8
L6-SILK_PHO
100
AcDbPolyline
 90
        5
 70
     0
 43
0.00591
 10
6.32878
 20
4.01665
 10
6.25004
 20
4.01665
 10
6.25004
 20
3.97728
 10
6.32878
 20
3.97728
 10
6.32878
 20
4.01665
  0
LWPOLYLINE
  5
A27
330
36
100
AcDbEntity
  8
L6-SILK_PHO
100
AcDbPolyline
 90
        5
 70
     0
 43
0.00591
 10
5.725169999999999
 20
4.83504
 10
5.725169999999999
 20
4.7563
 10
5.76454
 20
4.7563
 10
5.76454
 20
4.83504
 10
5.725169999999999
 20
4.83504
  0
LWPOLYLINE
  5
A2E
330
36
100
AcDbEntity
  8
L6-SILK_PHO
100
AcDbPolyline
 90
        2
 70
     0
 43
0.00591
 10
5.25424
 20
4.2934
 10
5.314239999999999
 20
4.2934
  0
LWPOLYLINE
  5
A32
330
36
100
AcDbEntity
  8
L6-SILK_PHO
100
AcDbPolyline
 90
        2
 70
     0
 43
0.00591
 10
5.25424
 20
4.25403
 10
5.314239999999999
 20
4.25403
  0
LWPOLYLINE
  5
A36
330
36
100
AcDbEntity
  8
L6-SILK_PHO
100
AcDbPolyline
 90
        2
 70
     0
 43
0.00591
 10
5.31573
 20
4.25403
 42
0.8200898
 10
5.31573
 20
4.2934
  0
LWPOLYLINE
  5
A3A
330
36
100
AcDbEntity
  8
L6-SILK_PHO
100
AcDbPolyline
 90
        2
 70
     0
 43
0.00591
 10
5.252759999999999
 20
4.2934
 42
0.7808245000000001
 10
5.25272
 20
4.25403
  0
LWPOLYLINE
  5
A3E
330
36
100
AcDbEntity
  8
L6-SILK_PHO
100
AcDbPolyline
 90
        2
 70
     0
 43
0.00591
 10
5.910099999999999
 20
4.016549999999999
 10
5.910099999999999
 20
4.122849999999999
  0
LWPOLYLINE
  5
A42
330
36
100
AcDbEntity
  8
L6-SILK_PHO
100
AcDbPolyline
 90
        2
 70
     0
 43
0.00591
 10
5.859709999999999
 20
4.016549999999999
 10
5.859709999999999
 20
4.122849999999999
  0
LWPOLYLINE
  5
A46
330
36
100
AcDbEntity
  8
L6-SILK_PHO
100
AcDbPolyline
 90
        2
 70
     0
 43
0.00591
 10
5.860959999999999
 20
4.015249999999999
 42
0.3419085
 10
5.908209999999999
 20
4.015209999999999
  0
LWPOLYLINE
  5
A4A
330
36
100
AcDbEntity
  8
L6-SILK_PHO
100
AcDbPolyline
 90
        2
 70
     0
 43
0.00591
 10
5.908549999999999
 20
4.124799999999999
 42
0.3331788
 10
5.86132
 20
4.12485
  0
LWPOLYLINE
  5
A4E
330
36
100
AcDbEntity
  8
L6-SILK_PHO
100
AcDbPolyline
 90
        6
 70
     0
 43
0.00591
 10
5.56693
 20
4.09409
 10
5.448819999999999
 20
4.09409
 10
5.448819999999999
 20
4.0437
 10
5.553149999999999
 20
4.0437
 10
5.56693
 20
4.057479999999999
 10
5.56693
 20
4.09409
  0
LWPOLYLINE
  5
A56
330
36
100
AcDbEntity
  8
L6-SILK_PHO
100
AcDbPolyline
 90
        5
 70
     0
 43
0.00591
 10
5.67728
 20
4.715619999999999
 10
5.67728
 20
4.63688
 10
5.716649999999999
 20
4.63688
 10
5.716649999999999
 20
4.715619999999999
 10
5.67728
 20
4.715619999999999
  0
LWPOLYLINE
  5
A5D
330
36
100
AcDbEntity
  8
L6-SILK_PHO
100
AcDbPolyline
 90
        2
 70
     0
 43
0.00591
 10
6.24508
 20
3.97538
 10
6.24508
 20
4.105299999999999
  0
LWPOLYLINE
  5
A61
330
36
100
AcDbEntity
  8
L6-SILK_PHO
100
AcDbPolyline
 90
        2
 70
     0
 43
0.00591
 10
6.18524
 20
3.97538
 10
6.18524
 20
4.105299999999999
  0
LWPOLYLINE
  5
A65
330
36
100
AcDbEntity
  8
L6-SILK_PHO
100
AcDbPolyline
 90
        2
 70
     0
 43
0.00591
 10
6.2427
 20
4.10728
 42
0.3091232
 10
6.187549999999999
 20
4.10724
  0
LWPOLYLINE
  5
A69
330
36
100
AcDbEntity
  8
L6-SILK_PHO
100
AcDbPolyline
 90
        2
 70
     0
 43
0.00591
 10
6.187649999999999
 20
3.97338
 42
0.2910309
 10
6.24274
 20
3.97343
  0
LWPOLYLINE
  5
A6D
330
36
100
AcDbEntity
  8
L6-SILK_PHO
100
AcDbPolyline
 90
        5
 70
     0
 43
0.00591
 10
5.24724
 20
4.21333
 10
5.32598
 20
4.21333
 10
5.32598
 20
4.252699999999999
 10
5.24724
 20
4.252699999999999
 10
5.24724
 20
4.21333
  0
LWPOLYLINE
  5
A74
330
36
100
AcDbEntity
  8
L6-SILK_PHO
100
AcDbPolyline
 90
        2
 70
     0
 43
0.00591
 10
5.827169999999999
 20
4.709109999999999
 10
5.827169999999999
 20
4.83903
  0
LWPOLYLINE
  5
A78
330
36
100
AcDbEntity
  8
L6-SILK_PHO
100
AcDbPolyline
 90
        2
 70
     0
 43
0.00591
 10
5.767319999999999
 20
4.709109999999999
 10
5.767319999999999
 20
4.83903
  0
LWPOLYLINE
  5
A7C
330
36
100
AcDbEntity
  8
L6-SILK_PHO
100
AcDbPolyline
 90
        2
 70
     0
 43
0.00591
 10
5.82478
 20
4.841009999999999
 42
0.3090453
 10
5.769639999999999
 20
4.840959999999999
  0
LWPOLYLINE
  5
A80
330
36
100
AcDbEntity
  8
L6-SILK_PHO
100
AcDbPolyline
 90
        2
 70
     0
 43
0.00591
 10
5.76974
 20
4.707099999999999
 42
0.2909292999999999
 10
5.824819999999999
 20
4.70715
  0
LWPOLYLINE
  5
A84
330
36
100
AcDbEntity
  8
L6-SILK_PHO
100
AcDbPolyline
 90
        5
 70
     0
 43
0.00591
 10
5.61925
 20
4.05433
 10
5.61925
 20
4.13307
 10
5.57988
 20
4.13307
 10
5.57988
 20
4.05433
 10
5.61925
 20
4.05433
  0
LWPOLYLINE
  5
A8B
330
36
100
AcDbEntity
  8
L6-SILK_PHO
100
AcDbPolyline
 90
        2
 70
     0
 43
0.00591
 10
5.81613
 20
4.0303
 10
5.81613
 20
4.0903
  0
LWPOLYLINE
  5
A8F
330
36
100
AcDbEntity
  8
L6-SILK_PHO
100
AcDbPolyline
 90
        2
 70
     0
 43
0.00591
 10
5.8555
 20
4.0303
 10
5.8555
 20
4.0903
  0
LWPOLYLINE
  5
A93
330
36
100
AcDbEntity
  8
L6-SILK_PHO
100
AcDbPolyline
 90
        2
 70
     0
 43
0.00591
 10
5.8555
 20
4.0918
 42
0.8196813999999999
 10
5.81613
 20
4.0918
  0
LWPOLYLINE
  5
A97
330
36
100
AcDbEntity
  8
L6-SILK_PHO
100
AcDbPolyline
 90
        2
 70
     0
 43
0.00591
 10
5.81613
 20
4.028819999999999
 42
0.7803916
 10
5.85549
 20
4.02878
  0
LWPOLYLINE
  5
A9B
330
36
100
AcDbEntity
  8
L6-SILK_PHO
100
AcDbPolyline
 90
        2
 70
     0
 43
0.00591
 10
6.32878
 20
4.09738
 10
6.32878
 20
4.03738
  0
LWPOLYLINE
  5
A9F
330
36
100
AcDbEntity
  8
L6-SILK_PHO
100
AcDbPolyline
 90
        2
 70
     0
 43
0.00591
 10
6.28941
 20
4.09738
 10
6.28941
 20
4.03738
  0
LWPOLYLINE
  5
AA3
330
36
100
AcDbEntity
  8
L6-SILK_PHO
100
AcDbPolyline
 90
        2
 70
     0
 43
0.00591
 10
6.28941
 20
4.03588
 42
0.8200930000000001
 10
6.32878
 20
4.03588
  0
LWPOLYLINE
  5
AA7
330
36
100
AcDbEntity
  8
L6-SILK_PHO
100
AcDbPolyline
 90
        2
 70
     0
 43
0.00591
 10
6.32878
 20
4.09886
 42
0.7806352
 10
6.28941
 20
4.098889999999999
  0
LWPOLYLINE
  5
AAB
330
36
100
AcDbEntity
  8
L6-SILK_PHO
100
AcDbPolyline
 90
        2
 70
     0
 43
0.00591
 10
6.171459999999999
 20
4.819449999999999
 10
6.171459999999999
 20
4.713149999999999
  0
LWPOLYLINE
  5
AAF
330
36
100
AcDbEntity
  8
L6-SILK_PHO
100
AcDbPolyline
 90
        2
 70
     0
 43
0.00591
 10
6.221849999999999
 20
4.819449999999999
 10
6.221849999999999
 20
4.713149999999999
  0
LWPOLYLINE
  5
AB3
330
36
100
AcDbEntity
  8
L6-SILK_PHO
100
AcDbPolyline
 90
        2
 70
     0
 43
0.00591
 10
6.2206
 20
4.82075
 42
0.3419085
 10
6.17335
 20
4.82079
  0
LWPOLYLINE
  5
AB7
330
36
100
AcDbEntity
  8
L6-SILK_PHO
100
AcDbPolyline
 90
        2
 70
     0
 43
0.00591
 10
6.173009999999999
 20
4.71119
 42
0.3331365
 10
6.22024
 20
4.711149999999999
  0
LWPOLYLINE
  5
ABB
330
36
100
AcDbEntity
  8
L6-SILK_PHO
100
AcDbPolyline
 90
        5
 70
     0
 43
0.00591
 10
5.40207
 20
4.315169999999999
 10
5.40207
 20
4.393909999999999
 10
5.3627
 20
4.393909999999999
 10
5.3627
 20
4.315169999999999
 10
5.40207
 20
4.315169999999999
  0
LWPOLYLINE
  5
AC2
330
36
100
AcDbEntity
  8
L6-SILK_PHO
100
AcDbPolyline
 90
        2
 70
     0
 43
0.00591
 10
5.379739999999999
 20
4.21042
 10
5.249819999999999
 20
4.21042
  0
LWPOLYLINE
  5
AC6
330
36
100
AcDbEntity
  8
L6-SILK_PHO
100
AcDbPolyline
 90
        2
 70
     0
 43
0.00591
 10
5.379739999999999
 20
4.15058
 10
5.249819999999999
 20
4.15058
  0
LWPOLYLINE
  5
ACA
330
36
100
AcDbEntity
  8
L6-SILK_PHO
100
AcDbPolyline
 90
        2
 70
     0
 43
0.00591
 10
5.24783
 20
4.20804
 42
0.3090915999999999
 10
5.24788
 20
4.15289
  0
LWPOLYLINE
  5
ACE
330
36
100
AcDbEntity
  8
L6-SILK_PHO
100
AcDbPolyline
 90
        2
 70
     0
 43
0.00591
 10
5.381739999999999
 20
4.152989999999999
 42
0.2910309
 10
5.381689999999999
 20
4.20808
  0
LWPOLYLINE
  5
AD2
330
36
100
AcDbEntity
  8
L6-SILK_PHO
100
AcDbPolyline
 90
        2
 70
     0
 43
0.00591
 10
5.607099999999999
 20
4.0415
 10
5.607099999999999
 20
3.9815
  0
LWPOLYLINE
  5
AD6
330
36
100
AcDbEntity
  8
L6-SILK_PHO
100
AcDbPolyline
 90
        2
 70
     0
 43
0.00591
 10
5.56773
 20
4.0415
 10
5.56773
 20
3.9815
  0
LWPOLYLINE
  5
ADA
330
36
100
AcDbEntity
  8
L6-SILK_PHO
100
AcDbPolyline
 90
        2
 70
     0
 43
0.00591
 10
5.56773
 20
3.98
 42
0.8200930000000001
 10
5.607099999999999
 20
3.98
  0
LWPOLYLINE
  5
ADE
330
36
100
AcDbEntity
  8
L6-SILK_PHO
100
AcDbPolyline
 90
        2
 70
     0
 43
0.00591
 10
5.607099999999999
 20
4.04298
 42
0.7805931
 10
5.56774
 20
4.043009999999999
  0
LWPOLYLINE
  5
AE2
330
36
100
AcDbEntity
  8
L6-SILK_PHO
100
AcDbPolyline
 90
        5
 70
     0
 43
0.00591
 10
6.049209999999999
 20
3.98689
 10
6.16732
 20
3.98689
 10
6.16732
 20
4.128619999999999
 10
6.049209999999999
 20
4.128619999999999
 10
6.049209999999999
 20
3.98689
  0
LWPOLYLINE
  5
AE9
330
36
100
AcDbEntity
  8
L6-SILK_PHO
100
AcDbPolyline
 90
        4
 70
     0
 43
0.00591
 10
6.10236
 20
4.027759999999999
 10
6.10433
 20
4.08776
 10
6.112199999999999
 20
4.027759999999999
 10
6.114169999999999
 20
4.08728
  0
LWPOLYLINE
  5
AEF
330
36
100
AcDbEntity
  8
L6-SILK_PHO
100
AcDbPolyline
 90
        5
 70
     0
 43
0.00591
 10
5.64425
 20
4.21879
 10
5.64425
 20
4.140049999999999
 10
5.683619999999999
 20
4.140049999999999
 10
5.683619999999999
 20
4.21879
 10
5.64425
 20
4.21879
  0
LWPOLYLINE
  5
AF6
330
36
100
AcDbEntity
  8
L6-SILK_PHO
100
AcDbPolyline
 90
        5
 70
     0
 43
0.00591
 10
5.395669999999999
 20
4.125919999999999
 10
5.27756
 20
4.125919999999999
 10
5.27756
 20
3.98419
 10
5.395669999999999
 20
3.98419
 10
5.395669999999999
 20
4.125919999999999
  0
LWPOLYLINE
  5
AFD
330
36
100
AcDbEntity
  8
L6-SILK_PHO
100
AcDbPolyline
 90
        4
 70
     0
 43
0.00591
 10
5.342519999999999
 20
4.085049999999999
 10
5.34055
 20
4.02505
 10
5.332679999999999
 20
4.085049999999999
 10
5.330709999999999
 20
4.025519999999999
  0
LWPOLYLINE
  5
B03
330
36
100
AcDbEntity
  8
L6-SILK_PHO
100
AcDbPolyline
 90
        5
 70
     0
 43
0.00591
 10
5.9626
 20
4.83504
 10
5.84449
 20
4.83504
 10
5.84449
 20
4.693309999999999
 10
5.9626
 20
4.693309999999999
 10
5.9626
 20
4.83504
  0
LWPOLYLINE
  5
B0A
330
36
100
AcDbEntity
  8
L6-SILK_PHO
100
AcDbPolyline
 90
        4
 70
     0
 43
0.00591
 10
5.909449999999999
 20
4.794169999999999
 10
5.90748
 20
4.734169999999999
 10
5.89961
 20
4.794169999999999
 10
5.897639999999999
 20
4.73465
  0
LWPOLYLINE
  5
B10
330
36
100
AcDbEntity
  8
L6-SILK_PHO
100
AcDbPolyline
 90
        5
 70
     0
 43
0.00591
 10
5.3337
 20
4.5255
 10
5.3337
 20
4.604239999999999
 10
5.29433
 20
4.604239999999999
 10
5.29433
 20
4.5255
 10
5.3337
 20
4.5255
  0
LWPOLYLINE
  5
B17
330
36
100
AcDbEntity
  8
L6-SILK_PHO
100
AcDbPolyline
 90
        5
 70
     0
 43
0.00591
 10
5.22388
 20
4.096849999999999
 10
5.22388
 20
4.01811
 10
5.26325
 20
4.01811
 10
5.26325
 20
4.096849999999999
 10
5.22388
 20
4.096849999999999
  0
LWPOLYLINE
  5
B1E
330
36
100
AcDbEntity
  8
L6-SILK_PHO
100
AcDbPolyline
 90
        2
 70
     0
 43
0.00591
 10
4.33609
 20
4.452899999999999
 10
4.33609
 20
4.346599999999999
  0
LWPOLYLINE
  5
B22
330
36
100
AcDbEntity
  8
L6-SILK_PHO
100
AcDbPolyline
 90
        2
 70
     0
 43
0.00591
 10
4.38648
 20
4.452899999999999
 10
4.38648
 20
4.346599999999999
  0
LWPOLYLINE
  5
B26
330
36
100
AcDbEntity
  8
L6-SILK_PHO
100
AcDbPolyline
 90
        2
 70
     0
 43
0.00591
 10
4.385229999999999
 20
4.4542
 42
0.3419085
 10
4.337979999999999
 20
4.45424
  0
LWPOLYLINE
  5
B2A
330
36
100
AcDbEntity
  8
L6-SILK_PHO
100
AcDbPolyline
 90
        2
 70
     0
 43
0.00591
 10
4.33765
 20
4.34464
 42
0.3330794
 10
4.384869999999999
 20
4.344599999999999
  0
LWPOLYLINE
  5
B2E
330
36
100
AcDbEntity
  8
L6-SILK_PHO
100
AcDbPolyline
 90
        5
 70
     0
 43
0.00591
 10
4.752849999999999
 20
4.63604
 10
4.674109999999999
 20
4.63604
 10
4.674109999999999
 20
4.596669999999999
 10
4.752849999999999
 20
4.596669999999999
 10
4.752849999999999
 20
4.63604
  0
LWPOLYLINE
  5
B35
330
36
100
AcDbEntity
  8
L6-SILK_PHO
100
AcDbPolyline
 90
        5
 70
     0
 43
0.00591
 10
4.586019999999999
 20
4.63604
 10
4.50728
 20
4.63604
 10
4.50728
 20
4.596669999999999
 10
4.586019999999999
 20
4.596669999999999
 10
4.586019999999999
 20
4.63604
  0
LWPOLYLINE
  5
B3C
330
36
100
AcDbEntity
  8
L6-SILK_PHO
100
AcDbPolyline
 90
        5
 70
     0
 43
0.00591
 10
4.668369999999999
 20
4.63604
 10
4.58963
 20
4.63604
 10
4.58963
 20
4.596669999999999
 10
4.668369999999999
 20
4.596669999999999
 10
4.668369999999999
 20
4.63604
  0
LWPOLYLINE
  5
B43
330
36
100
AcDbEntity
  8
L6-SILK_PHO
100
AcDbPolyline
 90
        2
 70
     0
 43
0.00591
 10
4.244869999999999
 20
4.632219999999999
 10
4.304869999999999
 20
4.632219999999999
  0
LWPOLYLINE
  5
B47
330
36
100
AcDbEntity
  8
L6-SILK_PHO
100
AcDbPolyline
 90
        2
 70
     0
 43
0.00591
 10
4.244869999999999
 20
4.59285
 10
4.304869999999999
 20
4.59285
  0
LWPOLYLINE
  5
B4B
330
36
100
AcDbEntity
  8
L6-SILK_PHO
100
AcDbPolyline
 90
        2
 70
     0
 43
0.00591
 10
4.306359999999999
 20
4.59285
 42
0.8200898
 10
4.306359999999999
 20
4.632219999999999
  0
LWPOLYLINE
  5
B4F
330
36
100
AcDbEntity
  8
L6-SILK_PHO
100
AcDbPolyline
 90
        2
 70
     0
 43
0.00591
 10
4.243389999999999
 20
4.632219999999999
 42
0.7808245000000001
 10
4.24335
 20
4.59285
  0
LWPOLYLINE
  5
B5A
330
36
100
AcDbEntity
  8
L6-SILK_PHO
100
AcDbPolyline
 90
        2
 70
     0
 43
0.00591
 10
4.390209999999999
 20
4.59285
 10
4.33021
 20
4.59285
  0
LWPOLYLINE
  5
B5E
330
36
100
AcDbEntity
  8
L6-SILK_PHO
100
AcDbPolyline
 90
        2
 70
     0
 43
0.00591
 10
4.390209999999999
 20
4.632219999999999
 10
4.33021
 20
4.632219999999999
  0
LWPOLYLINE
  5
B62
330
36
100
AcDbEntity
  8
L6-SILK_PHO
100
AcDbPolyline
 90
        2
 70
     0
 43
0.00591
 10
4.32871
 20
4.632219999999999
 42
0.8196813999999999
 10
4.32871
 20
4.59285
  0
LWPOLYLINE
  5
B66
330
36
100
AcDbEntity
  8
L6-SILK_PHO
100
AcDbPolyline
 90
        2
 70
     0
 43
0.00591
 10
4.39169
 20
4.592839999999999
 42
0.7804398
 10
4.391729999999999
 20
4.632209999999999
  0
LWPOLYLINE
  5
B6A
330
36
100
AcDbEntity
  8
L6-SILK_PHO
100
AcDbPolyline
 90
        2
 70
     0
 43
0.00591
 10
4.4271
 20
4.44014
 10
4.4271
 20
4.380139999999999
  0
LWPOLYLINE
  5
B6E
330
36
100
AcDbEntity
  8
L6-SILK_PHO
100
AcDbPolyline
 90
        2
 70
     0
 43
0.00591
 10
4.38773
 20
4.44014
 10
4.38773
 20
4.380139999999999
  0
LWPOLYLINE
  5
B72
330
36
100
AcDbEntity
  8
L6-SILK_PHO
100
AcDbPolyline
 90
        2
 70
     0
 43
0.00591
 10
4.38773
 20
4.37865
 42
0.8200930000000001
 10
4.4271
 20
4.37865
  0
LWPOLYLINE
  5
B76
330
36
100
AcDbEntity
  8
L6-SILK_PHO
100
AcDbPolyline
 90
        2
 70
     0
 43
0.00591
 10
4.4271
 20
4.441629999999999
 42
0.7805931
 10
4.387739999999999
 20
4.441659999999999
  0
LWPOLYLINE
  5
B7A
330
36
100
AcDbEntity
  8
L6-SILK_PHO
100
AcDbPolyline
 90
        5
 70
     0
 43
0.00591
 10
4.32878
 20
4.564369999999999
 10
4.3845
 20
4.508719999999999
 10
4.412319999999999
 20
4.53658
 10
4.356609999999999
 20
4.592219999999999
 10
4.32878
 20
4.564369999999999
  0
LWPOLYLINE
  5
B81
330
36
100
AcDbEntity
  8
L6-SILK_PHO
100
AcDbPolyline
 90
        5
 70
     0
 43
0.00591
 10
5.574539999999999
 20
4.60501
 10
5.4958
 20
4.60501
 10
5.4958
 20
4.56564
 10
5.574539999999999
 20
4.56564
 10
5.574539999999999
 20
4.60501
  0
LWPOLYLINE
  5
B88
330
36
100
AcDbEntity
  8
L6-SILK_PHO
100
AcDbPolyline
 90
        5
 70
     0
 43
0.00591
 10
4.762349999999999
 20
4.75759
 10
4.762349999999999
 20
4.63948
 10
4.90408
 20
4.63948
 10
4.90408
 20
4.75759
 10
4.762349999999999
 20
4.75759
  0
LWPOLYLINE
  5
B8F
330
36
100
AcDbEntity
  8
L6-SILK_PHO
100
AcDbPolyline
 90
        4
 70
     0
 43
0.00591
 10
4.803219999999999
 20
4.704439999999999
 10
4.86322
 20
4.702469999999999
 10
4.803219999999999
 20
4.694589999999999
 10
4.86274
 20
4.692619999999999
  0
LWPOLYLINE
  5
BA5
330
36
100
AcDbEntity
  8
L6-SILK_PHO
100
AcDbPolyline
 90
        2
 70
     0
 43
0.00591
 10
6.54373
 20
4.13016
 10
6.54373
 20
4.190159999999999
  0
LWPOLYLINE
  5
BA9
330
36
100
AcDbEntity
  8
L6-SILK_PHO
100
AcDbPolyline
 90
        2
 70
     0
 43
0.00591
 10
6.583099999999999
 20
4.13016
 10
6.583099999999999
 20
4.190159999999999
  0
LWPOLYLINE
  5
BAD
330
36
100
AcDbEntity
  8
L6-SILK_PHO
100
AcDbPolyline
 90
        2
 70
     0
 43
0.00591
 10
6.583099999999999
 20
4.19165
 42
0.8200930000000001
 10
6.54373
 20
4.19165
  0
LWPOLYLINE
  5
BB1
330
36
100
AcDbEntity
  8
L6-SILK_PHO
100
AcDbPolyline
 90
        2
 70
     0
 43
0.00591
 10
6.543719999999999
 20
4.128669999999999
 42
0.7806352
 10
6.583089999999999
 20
4.128639999999999
  0
LWPOLYLINE
  5
BB5
330
36
100
AcDbEntity
  8
L6-SILK_PHO
100
AcDbPolyline
 90
        2
 70
     0
 43
0.00591
 10
5.59369
 20
4.261219999999999
 10
5.65369
 20
4.261219999999999
  0
LWPOLYLINE
  5
BB9
330
36
100
AcDbEntity
  8
L6-SILK_PHO
100
AcDbPolyline
 90
        2
 70
     0
 43
0.00591
 10
5.59369
 20
4.221849999999999
 10
5.65369
 20
4.221849999999999
  0
LWPOLYLINE
  5
BBD
330
36
100
AcDbEntity
  8
L6-SILK_PHO
100
AcDbPolyline
 90
        2
 70
     0
 43
0.00591
 10
5.65518
 20
4.221849999999999
 42
0.8200898
 10
5.65518
 20
4.261219999999999
  0
LWPOLYLINE
  5
BC1
330
36
100
AcDbEntity
  8
L6-SILK_PHO
100
AcDbPolyline
 90
        2
 70
     0
 43
0.00591
 10
5.5922
 20
4.261219999999999
 42
0.7805931
 10
5.592169999999999
 20
4.221859999999999
  0
LWPOLYLINE
  5
BC5
330
36
100
AcDbEntity
  8
L6-SILK_PHO
100
AcDbPolyline
 90
        2
 70
     0
 43
0.00591
 10
6.363659999999999
 20
4.1185
 10
6.303659999999999
 20
4.1185
  0
LWPOLYLINE
  5
BC9
330
36
100
AcDbEntity
  8
L6-SILK_PHO
100
AcDbPolyline
 90
        2
 70
     0
 43
0.00591
 10
6.363659999999999
 20
4.157869999999999
 10
6.303659999999999
 20
4.157869999999999
  0
LWPOLYLINE
  5
BCD
330
36
100
AcDbEntity
  8
L6-SILK_PHO
100
AcDbPolyline
 90
        2
 70
     0
 43
0.00591
 10
6.302169999999999
 20
4.157869999999999
 42
0.8200930000000001
 10
6.302169999999999
 20
4.1185
  0
LWPOLYLINE
  5
BD1
330
36
100
AcDbEntity
  8
L6-SILK_PHO
100
AcDbPolyline
 90
        2
 70
     0
 43
0.00591
 10
6.365149999999999
 20
4.1185
 42
0.7806352
 10
6.36518
 20
4.157869999999999
  0
LWPOLYLINE
  5
BD5
330
36
100
AcDbEntity
  8
L6-SILK_PHO
100
AcDbPolyline
 90
        2
 70
     0
 43
0.00591
 10
6.45403
 20
4.119959999999999
 10
6.394029999999999
 20
4.119959999999999
  0
LWPOLYLINE
  5
BD9
330
36
100
AcDbEntity
  8
L6-SILK_PHO
100
AcDbPolyline
 90
        2
 70
     0
 43
0.00591
 10
6.45403
 20
4.15933
 10
6.394029999999999
 20
4.15933
  0
LWPOLYLINE
  5
BDD
330
36
100
AcDbEntity
  8
L6-SILK_PHO
100
AcDbPolyline
 90
        2
 70
     0
 43
0.00591
 10
6.39253
 20
4.15933
 42
0.8196813999999999
 10
6.39253
 20
4.119959999999999
  0
LWPOLYLINE
  5
BE1
330
36
100
AcDbEntity
  8
L6-SILK_PHO
100
AcDbPolyline
 90
        2
 70
     0
 43
0.00591
 10
6.455509999999999
 20
4.119959999999999
 42
0.7804398
 10
6.455549999999999
 20
4.15933
  0
LWPOLYLINE
  5
BE5
330
36
100
AcDbEntity
  8
L6-SILK_PHO
100
AcDbPolyline
 90
        2
 70
     0
 43
0.00591
 10
5.244839999999999
 20
4.303219999999999
 10
5.244839999999999
 20
4.36322
  0
LWPOLYLINE
  5
BE9
330
36
100
AcDbEntity
  8
L6-SILK_PHO
100
AcDbPolyline
 90
        2
 70
     0
 43
0.00591
 10
5.284209999999999
 20
4.303219999999999
 10
5.284209999999999
 20
4.36322
  0
LWPOLYLINE
  5
BED
330
36
100
AcDbEntity
  8
L6-SILK_PHO
100
AcDbPolyline
 90
        2
 70
     0
 43
0.00591
 10
5.284209999999999
 20
4.364709999999999
 42
0.8200930000000001
 10
5.244839999999999
 20
4.364709999999999
  0
LWPOLYLINE
  5
BF1
330
36
100
AcDbEntity
  8
L6-SILK_PHO
100
AcDbPolyline
 90
        2
 70
     0
 43
0.00591
 10
5.244839999999999
 20
4.30173
 42
0.7806352
 10
5.284209999999999
 20
4.3017
  0
LWPOLYLINE
  5
BF5
330
36
100
AcDbEntity
  8
L6-SILK_PHO
100
AcDbPolyline
 90
        2
 70
     0
 43
0.00591
 10
5.620369999999999
 20
4.043819999999999
 10
5.620369999999999
 20
4.103819999999999
  0
LWPOLYLINE
  5
BF9
330
36
100
AcDbEntity
  8
L6-SILK_PHO
100
AcDbPolyline
 90
        2
 70
     0
 43
0.00591
 10
5.65974
 20
4.043819999999999
 10
5.65974
 20
4.103819999999999
  0
LWPOLYLINE
  5
BFD
330
36
100
AcDbEntity
  8
L6-SILK_PHO
100
AcDbPolyline
 90
        2
 70
     0
 43
0.00591
 10
5.65974
 20
4.10531
 42
0.8200930000000001
 10
5.620369999999999
 20
4.10531
  0
LWPOLYLINE
  5
C01
330
36
100
AcDbEntity
  8
L6-SILK_PHO
100
AcDbPolyline
 90
        2
 70
     0
 43
0.00591
 10
5.620359999999999
 20
4.04234
 42
0.7808245000000001
 10
5.65973
 20
4.0423
  0
LWPOLYLINE
  5
C05
330
36
100
AcDbEntity
  8
L6-SILK_PHO
100
AcDbPolyline
 90
        2
 70
     0
 43
0.00591
 10
6.079369999999999
 20
4.61004
 10
6.079369999999999
 20
4.67004
  0
LWPOLYLINE
  5
C09
330
36
100
AcDbEntity
  8
L6-SILK_PHO
100
AcDbPolyline
 90
        2
 70
     0
 43
0.00591
 10
6.118739999999999
 20
4.61004
 10
6.118739999999999
 20
4.67004
  0
LWPOLYLINE
  5
C0D
330
36
100
AcDbEntity
  8
L6-SILK_PHO
100
AcDbPolyline
 90
        2
 70
     0
 43
0.00591
 10
6.118739999999999
 20
4.67154
 42
0.8196813999999999
 10
6.079369999999999
 20
4.67154
  0
LWPOLYLINE
  5
C11
330
36
100
AcDbEntity
  8
L6-SILK_PHO
100
AcDbPolyline
 90
        2
 70
     0
 43
0.00591
 10
6.079369999999999
 20
4.608559999999999
 42
0.7807794000000001
 10
6.11873
 20
4.608519999999999
  0
LWPOLYLINE
  5
C15
330
36
100
AcDbEntity
  8
L6-SILK_PHO
100
AcDbPolyline
 90
        2
 70
     0
 43
0.00591
 10
6.28514
 20
4.61043
 10
6.28514
 20
4.67043
  0
LWPOLYLINE
  5
C19
330
36
100
AcDbEntity
  8
L6-SILK_PHO
100
AcDbPolyline
 90
        2
 70
     0
 43
0.00591
 10
6.32451
 20
4.61043
 10
6.32451
 20
4.67043
  0
LWPOLYLINE
  5
C1D
330
36
100
AcDbEntity
  8
L6-SILK_PHO
100
AcDbPolyline
 90
        2
 70
     0
 43
0.00591
 10
6.32451
 20
4.67193
 42
0.8200930000000001
 10
6.28514
 20
4.67193
  0
LWPOLYLINE
  5
C21
330
36
100
AcDbEntity
  8
L6-SILK_PHO
100
AcDbPolyline
 90
        2
 70
     0
 43
0.00591
 10
6.28514
 20
4.60895
 42
0.7806352
 10
6.32451
 20
4.608919999999999
  0
LWPOLYLINE
  5
C35
330
36
100
AcDbEntity
  8
L6-SILK_PHO
100
AcDbPolyline
 90
        2
 70
     0
 43
0.00591
 10
5.42093
 20
4.50035
 10
5.42093
 20
4.560349999999999
  0
LWPOLYLINE
  5
C39
330
36
100
AcDbEntity
  8
L6-SILK_PHO
100
AcDbPolyline
 90
        2
 70
     0
 43
0.00591
 10
5.4603
 20
4.50035
 10
5.4603
 20
4.560349999999999
  0
LWPOLYLINE
  5
C3D
330
36
100
AcDbEntity
  8
L6-SILK_PHO
100
AcDbPolyline
 90
        2
 70
     0
 43
0.00591
 10
5.4603
 20
4.561849999999999
 42
0.8200930000000001
 10
5.42093
 20
4.561849999999999
  0
LWPOLYLINE
  5
C41
330
36
100
AcDbEntity
  8
L6-SILK_PHO
100
AcDbPolyline
 90
        2
 70
     0
 43
0.00591
 10
5.42093
 20
4.49887
 42
0.7806352
 10
5.4603
 20
4.49884
  0
LWPOLYLINE
  5
C45
330
36
100
AcDbEntity
  8
L6-SILK_PHO
100
AcDbPolyline
 90
        2
 70
     0
 43
0.00591
 10
5.49013
 20
4.27113
 10
5.43013
 20
4.27113
  0
LWPOLYLINE
  5
C49
330
36
100
AcDbEntity
  8
L6-SILK_PHO
100
AcDbPolyline
 90
        2
 70
     0
 43
0.00591
 10
5.49013
 20
4.3105
 10
5.43013
 20
4.3105
  0
LWPOLYLINE
  5
C4D
330
36
100
AcDbEntity
  8
L6-SILK_PHO
100
AcDbPolyline
 90
        2
 70
     0
 43
0.00591
 10
5.42864
 20
4.3105
 42
0.8200930000000001
 10
5.42864
 20
4.27113
  0
LWPOLYLINE
  5
C51
330
36
100
AcDbEntity
  8
L6-SILK_PHO
100
AcDbPolyline
 90
        2
 70
     0
 43
0.00591
 10
5.491609999999999
 20
4.27113
 42
0.7807794000000001
 10
5.491649999999999
 20
4.310489999999999
  0
LWPOLYLINE
  5
C55
330
36
100
AcDbEntity
  8
L6-SILK_PHO
100
AcDbPolyline
 90
        2
 70
     0
 43
0.00591
 10
5.422969999999999
 20
4.36919
 10
5.422969999999999
 20
4.42919
  0
LWPOLYLINE
  5
C59
330
36
100
AcDbEntity
  8
L6-SILK_PHO
100
AcDbPolyline
 90
        2
 70
     0
 43
0.00591
 10
5.46234
 20
4.36919
 10
5.46234
 20
4.42919
  0
LWPOLYLINE
  5
C5D
330
36
100
AcDbEntity
  8
L6-SILK_PHO
100
AcDbPolyline
 90
        2
 70
     0
 43
0.00591
 10
5.46234
 20
4.43068
 42
0.8200930000000001
 10
5.422969999999999
 20
4.43068
  0
LWPOLYLINE
  5
C61
330
36
100
AcDbEntity
  8
L6-SILK_PHO
100
AcDbPolyline
 90
        2
 70
     0
 43
0.00591
 10
5.422959999999999
 20
4.3677
 42
0.7806352
 10
5.46233
 20
4.367669999999999
  0
LWPOLYLINE
  5
C65
330
36
100
AcDbEntity
  8
L6-SILK_PHO
100
AcDbPolyline
 90
        2
 70
     0
 43
0.00591
 10
5.331919999999999
 20
4.48076
 10
5.391919999999999
 20
4.48076
  0
LWPOLYLINE
  5
C69
330
36
100
AcDbEntity
  8
L6-SILK_PHO
100
AcDbPolyline
 90
        2
 70
     0
 43
0.00591
 10
5.331919999999999
 20
4.44139
 10
5.391919999999999
 20
4.44139
  0
LWPOLYLINE
  5
C6D
330
36
100
AcDbEntity
  8
L6-SILK_PHO
100
AcDbPolyline
 90
        2
 70
     0
 43
0.00591
 10
5.39341
 20
4.44139
 42
0.8200898
 10
5.39341
 20
4.48076
  0
LWPOLYLINE
  5
C71
330
36
100
AcDbEntity
  8
L6-SILK_PHO
100
AcDbPolyline
 90
        2
 70
     0
 43
0.00591
 10
5.33043
 20
4.48076
 42
0.7805931
 10
5.3304
 20
4.441399999999999
  0
LWPOLYLINE
  5
C75
330
36
100
AcDbEntity
  8
L6-SILK_PHO
100
AcDbPolyline
 90
        2
 70
     0
 43
0.00591
 10
5.203819999999999
 20
4.06827
 10
5.203819999999999
 20
4.008269999999999
  0
LWPOLYLINE
  5
C79
330
36
100
AcDbEntity
  8
L6-SILK_PHO
100
AcDbPolyline
 90
        2
 70
     0
 43
0.00591
 10
5.16445
 20
4.06827
 10
5.16445
 20
4.008269999999999
  0
LWPOLYLINE
  5
C7D
330
36
100
AcDbEntity
  8
L6-SILK_PHO
100
AcDbPolyline
 90
        2
 70
     0
 43
0.00591
 10
5.16445
 20
4.006769999999999
 42
0.8196813999999999
 10
5.203819999999999
 20
4.006769999999999
  0
LWPOLYLINE
  5
C81
330
36
100
AcDbEntity
  8
L6-SILK_PHO
100
AcDbPolyline
 90
        2
 70
     0
 43
0.00591
 10
5.203819999999999
 20
4.069749999999999
 42
0.7804398
 10
5.16445
 20
4.06979
  0
LWPOLYLINE
  5
C85
330
36
100
AcDbEntity
  8
L6-SILK_PHO
100
AcDbPolyline
 90
        2
 70
     0
 43
0.00591
 10
5.519379999999999
 20
4.218359999999999
 10
5.519379999999999
 20
4.27836
  0
LWPOLYLINE
  5
C89
330
36
100
AcDbEntity
  8
L6-SILK_PHO
100
AcDbPolyline
 90
        2
 70
     0
 43
0.00591
 10
5.558749999999999
 20
4.218359999999999
 10
5.558749999999999
 20
4.27836
  0
LWPOLYLINE
  5
C8D
330
36
100
AcDbEntity
  8
L6-SILK_PHO
100
AcDbPolyline
 90
        2
 70
     0
 43
0.00591
 10
5.558749999999999
 20
4.27986
 42
0.8196813999999999
 10
5.519379999999999
 20
4.27986
  0
LWPOLYLINE
  5
C91
330
36
100
AcDbEntity
  8
L6-SILK_PHO
100
AcDbPolyline
 90
        2
 70
     0
 43
0.00591
 10
5.519379999999999
 20
4.21688
 42
0.7808245000000001
 10
5.558749999999999
 20
4.21684
  0
LWPOLYLINE
  5
C95
330
36
100
AcDbEntity
  8
L6-SILK_PHO
100
AcDbPolyline
 90
        2
 70
     0
 43
0.00591
 10
5.588449999999999
 20
4.80377
 10
5.64845
 20
4.80377
  0
LWPOLYLINE
  5
C99
330
36
100
AcDbEntity
  8
L6-SILK_PHO
100
AcDbPolyline
 90
        2
 70
     0
 43
0.00591
 10
5.588449999999999
 20
4.7644
 10
5.64845
 20
4.7644
  0
LWPOLYLINE
  5
C9D
330
36
100
AcDbEntity
  8
L6-SILK_PHO
100
AcDbPolyline
 90
        2
 70
     0
 43
0.00591
 10
5.649949999999999
 20
4.7644
 42
0.8196781999999998
 10
5.649949999999999
 20
4.80377
  0
LWPOLYLINE
  5
CA1
330
36
100
AcDbEntity
  8
L6-SILK_PHO
100
AcDbPolyline
 90
        2
 70
     0
 43
0.00591
 10
5.586969999999999
 20
4.80377
 42
0.7804398
 10
5.58693
 20
4.7644
  0
LWPOLYLINE
  5
CA5
330
36
100
AcDbEntity
  8
L6-SILK_PHO
100
AcDbPolyline
 90
        2
 70
     0
 43
0.00591
 10
5.520299999999999
 20
4.48287
 10
5.520299999999999
 20
4.542869999999999
  0
LWPOLYLINE
  5
CA9
330
36
100
AcDbEntity
  8
L6-SILK_PHO
100
AcDbPolyline
 90
        2
 70
     0
 43
0.00591
 10
5.559669999999999
 20
4.48287
 10
5.559669999999999
 20
4.542869999999999
  0
LWPOLYLINE
  5
CAD
330
36
100
AcDbEntity
  8
L6-SILK_PHO
100
AcDbPolyline
 90
        2
 70
     0
 43
0.00591
 10
5.559669999999999
 20
4.544369999999999
 42
0.8200930000000001
 10
5.520299999999999
 20
4.544369999999999
  0
LWPOLYLINE
  5
CB1
330
36
100
AcDbEntity
  8
L6-SILK_PHO
100
AcDbPolyline
 90
        2
 70
     0
 43
0.00591
 10
5.520299999999999
 20
4.48139
 42
0.7806352
 10
5.559669999999999
 20
4.481359999999999
  0
LWPOLYLINE
  5
CB5
330
36
100
AcDbEntity
  8
L6-SILK_PHO
100
AcDbPolyline
 90
        2
 70
     0
 43
0.00591
 10
5.49026
 20
4.70056
 10
5.49026
 20
4.760559999999999
  0
LWPOLYLINE
  5
CB9
330
36
100
AcDbEntity
  8
L6-SILK_PHO
100
AcDbPolyline
 90
        2
 70
     0
 43
0.00591
 10
5.52963
 20
4.70056
 10
5.52963
 20
4.760559999999999
  0
LWPOLYLINE
  5
CBD
330
36
100
AcDbEntity
  8
L6-SILK_PHO
100
AcDbPolyline
 90
        2
 70
     0
 43
0.00591
 10
5.52963
 20
4.762059999999999
 42
0.8200930000000001
 10
5.49026
 20
4.762059999999999
  0
LWPOLYLINE
  5
CC1
330
36
100
AcDbEntity
  8
L6-SILK_PHO
100
AcDbPolyline
 90
        2
 70
     0
 43
0.00591
 10
5.49026
 20
4.69908
 42
0.7806352
 10
5.52963
 20
4.699049999999999
  0
LWPOLYLINE
  5
CC5
330
36
100
AcDbEntity
  8
L6-SILK_PHO
100
AcDbPolyline
 90
        2
 70
     0
 43
0.00591
 10
5.49084
 20
4.310789999999999
 10
5.430839999999999
 20
4.310789999999999
  0
LWPOLYLINE
  5
CC9
330
36
100
AcDbEntity
  8
L6-SILK_PHO
100
AcDbPolyline
 90
        2
 70
     0
 43
0.00591
 10
5.49084
 20
4.350159999999999
 10
5.430839999999999
 20
4.350159999999999
  0
LWPOLYLINE
  5
CCD
330
36
100
AcDbEntity
  8
L6-SILK_PHO
100
AcDbPolyline
 90
        2
 70
     0
 43
0.00591
 10
5.429339999999999
 20
4.350159999999999
 42
0.8196813999999999
 10
5.429339999999999
 20
4.310789999999999
  0
LWPOLYLINE
  5
CD1
330
36
100
AcDbEntity
  8
L6-SILK_PHO
100
AcDbPolyline
 90
        2
 70
     0
 43
0.00591
 10
5.492319999999999
 20
4.31078
 42
0.7804398
 10
5.492359999999999
 20
4.35015
  0
LWPOLYLINE
  5
CD5
330
36
100
AcDbEntity
  8
L6-SILK_PHO
100
AcDbPolyline
 90
        2
 70
     0
 43
0.00591
 10
5.681969999999999
 20
4.35944
 10
5.62197
 20
4.35944
  0
LWPOLYLINE
  5
CD9
330
36
100
AcDbEntity
  8
L6-SILK_PHO
100
AcDbPolyline
 90
        2
 70
     0
 43
0.00591
 10
5.681969999999999
 20
4.39881
 10
5.62197
 20
4.39881
  0
LWPOLYLINE
  5
CDD
330
36
100
AcDbEntity
  8
L6-SILK_PHO
100
AcDbPolyline
 90
        2
 70
     0
 43
0.00591
 10
5.62047
 20
4.39881
 42
0.8196813999999999
 10
5.62047
 20
4.35944
  0
LWPOLYLINE
  5
CE1
330
36
100
AcDbEntity
  8
L6-SILK_PHO
100
AcDbPolyline
 90
        2
 70
     0
 43
0.00591
 10
5.683449999999999
 20
4.35943
 42
0.7804398
 10
5.683489999999999
 20
4.398799999999999
  0
LWPOLYLINE
  5
CE5
330
36
100
AcDbEntity
  8
L6-SILK_PHO
100
AcDbPolyline
 90
        2
 70
     0
 43
0.00591
 10
6.37786
 20
4.637569999999999
 10
6.437859999999999
 20
4.637569999999999
  0
LWPOLYLINE
  5
CE9
330
36
100
AcDbEntity
  8
L6-SILK_PHO
100
AcDbPolyline
 90
        2
 70
     0
 43
0.00591
 10
6.37786
 20
4.5982
 10
6.437859999999999
 20
4.5982
  0
LWPOLYLINE
  5
CED
330
36
100
AcDbEntity
  8
L6-SILK_PHO
100
AcDbPolyline
 90
        2
 70
     0
 43
0.00591
 10
6.439359999999999
 20
4.5982
 42
0.8196781999999998
 10
6.439359999999999
 20
4.637569999999999
  0
LWPOLYLINE
  5
CF1
330
36
100
AcDbEntity
  8
L6-SILK_PHO
100
AcDbPolyline
 90
        2
 70
     0
 43
0.00591
 10
6.37638
 20
4.63758
 42
0.7804398
 10
6.376339999999999
 20
4.598209999999999
  0
LWPOLYLINE
  5
CF5
330
36
100
AcDbEntity
  8
L6-SILK_PHO
100
AcDbPolyline
 90
        2
 70
     0
 43
0.00591
 10
6.23421
 20
4.59803
 10
6.174209999999999
 20
4.59803
  0
LWPOLYLINE
  5
CF9
330
36
100
AcDbEntity
  8
L6-SILK_PHO
100
AcDbPolyline
 90
        2
 70
     0
 43
0.00591
 10
6.23421
 20
4.6374
 10
6.174209999999999
 20
4.6374
  0
LWPOLYLINE
  5
CFD
330
36
100
AcDbEntity
  8
L6-SILK_PHO
100
AcDbPolyline
 90
        2
 70
     0
 43
0.00591
 10
6.172719999999999
 20
4.6374
 42
0.8200930000000001
 10
6.172719999999999
 20
4.59803
  0
LWPOLYLINE
  5
D01
330
36
100
AcDbEntity
  8
L6-SILK_PHO
100
AcDbPolyline
 90
        2
 70
     0
 43
0.00591
 10
6.235699999999999
 20
4.59803
 42
0.7806352
 10
6.23573
 20
4.6374
  0
LWPOLYLINE
  5
D05
330
36
100
AcDbEntity
  8
L6-SILK_PHO
100
AcDbPolyline
 90
        2
 70
     0
 43
0.00591
 10
5.578959999999999
 20
4.276839999999999
 10
5.685259999999999
 20
4.276839999999999
  0
LWPOLYLINE
  5
D09
330
36
100
AcDbEntity
  8
L6-SILK_PHO
100
AcDbPolyline
 90
        2
 70
     0
 43
0.00591
 10
5.578959999999999
 20
4.32723
 10
5.685259999999999
 20
4.32723
  0
LWPOLYLINE
  5
D0D
330
36
100
AcDbEntity
  8
L6-SILK_PHO
100
AcDbPolyline
 90
        2
 70
     0
 43
0.00591
 10
5.577659999999999
 20
4.32598
 42
0.3419085
 10
5.577619999999999
 20
4.27873
  0
LWPOLYLINE
  5
D11
330
36
100
AcDbEntity
  8
L6-SILK_PHO
100
AcDbPolyline
 90
        2
 70
     0
 43
0.00591
 10
5.687219999999999
 20
4.2784
 42
0.3330794
 10
5.68726
 20
4.325619999999999
  0
LWPOLYLINE
  5
D15
330
36
100
AcDbEntity
  8
L6-SILK_PHO
100
AcDbPolyline
 90
        2
 70
     0
 43
0.00591
 10
6.06566
 20
4.648649999999999
 10
5.95936
 20
4.648649999999999
  0
LWPOLYLINE
  5
D19
330
36
100
AcDbEntity
  8
L6-SILK_PHO
100
AcDbPolyline
 90
        2
 70
     0
 43
0.00591
 10
6.06566
 20
4.59825
 10
5.95936
 20
4.59825
  0
LWPOLYLINE
  5
D1D
330
36
100
AcDbEntity
  8
L6-SILK_PHO
100
AcDbPolyline
 90
        2
 70
     0
 43
0.00591
 10
6.066959999999999
 20
4.599509999999999
 42
0.3418513
 10
6.067
 20
4.646749999999999
  0
LWPOLYLINE
  5
D21
330
36
100
AcDbEntity
  8
L6-SILK_PHO
100
AcDbPolyline
 90
        2
 70
     0
 43
0.00591
 10
5.957399999999999
 20
4.64709
 42
0.3331647
 10
5.957359999999999
 20
4.59987
  0
LWPOLYLINE
  5
D25
330
36
100
AcDbEntity
  8
L6-SILK_PHO
100
AcDbPolyline
 90
        2
 70
     0
 43
0.00591
 10
4.95858
 20
4.70472
 10
4.95858
 20
4.81102
  0
LWPOLYLINE
  5
D29
330
36
100
AcDbEntity
  8
L6-SILK_PHO
100
AcDbPolyline
 90
        2
 70
     0
 43
0.00591
 10
4.90819
 20
4.70472
 10
4.90819
 20
4.81102
  0
LWPOLYLINE
  5
D2D
330
36
100
AcDbEntity
  8
L6-SILK_PHO
100
AcDbPolyline
 90
        2
 70
     0
 43
0.00591
 10
4.90944
 20
4.703419999999999
 42
0.3419085
 10
4.95669
 20
4.70338
  0
LWPOLYLINE
  5
D31
330
36
100
AcDbEntity
  8
L6-SILK_PHO
100
AcDbPolyline
 90
        2
 70
     0
 43
0.00591
 10
4.957019999999999
 20
4.81298
 42
0.3331647
 10
4.909799999999999
 20
4.813019999999999
  0
LWPOLYLINE
  5
D35
330
36
100
AcDbEntity
  8
L6-SILK_PHO
100
AcDbPolyline
 90
        2
 70
     0
 43
0.00591
 10
5.472439999999999
 20
4.390109999999999
 10
5.60236
 20
4.390109999999999
  0
LWPOLYLINE
  5
D39
330
36
100
AcDbEntity
  8
L6-SILK_PHO
100
AcDbPolyline
 90
        2
 70
     0
 43
0.00591
 10
5.472439999999999
 20
4.44995
 10
5.60236
 20
4.44995
  0
LWPOLYLINE
  5
D3D
330
36
100
AcDbEntity
  8
L6-SILK_PHO
100
AcDbPolyline
 90
        2
 70
     0
 43
0.00591
 10
5.60435
 20
4.39249
 42
0.3090453
 10
5.6043
 20
4.44763
  0
LWPOLYLINE
  5
D41
330
36
100
AcDbEntity
  8
L6-SILK_PHO
100
AcDbPolyline
 90
        2
 70
     0
 43
0.00591
 10
5.470439999999999
 20
4.44753
 42
0.2909864
 10
5.470489999999999
 20
4.39245
  0
LWPOLYLINE
  5
D45
330
36
100
AcDbEntity
  8
L6-SILK_PHO
100
AcDbPolyline
 90
        5
 70
     0
 43
0.00591
 10
6.470489999999999
 20
4.066399999999999
 10
6.580719999999999
 20
4.066399999999999
 10
6.580719999999999
 20
4.116799999999999
 10
6.470489999999999
 20
4.116799999999999
 10
6.470489999999999
 20
4.066399999999999
  0
LWPOLYLINE
  5
D4C
330
36
100
AcDbEntity
  8
L6-SILK_PHO
100
AcDbPolyline
 90
        4
 70
     0
 43
0.00591
 10
6.580719999999999
 20
4.066399999999999
 10
6.59253
 20
4.066399999999999
 10
6.59253
 20
4.116799999999999
 10
6.580719999999999
 20
4.116799999999999
  0
LWPOLYLINE
  5
D52
330
36
100
AcDbEntity
  8
L6-SILK_PHO
100
AcDbPolyline
 90
        5
 70
     0
 43
0.00591
 10
6.372809999999999
 20
4.64178
 10
6.44367
 20
4.64178
 10
6.44367
 20
4.67328
 10
6.372809999999999
 20
4.67328
 10
6.372809999999999
 20
4.64178
  0
LWPOLYLINE
  5
D59
330
36
100
AcDbEntity
  8
L6-SILK_PHO
100
AcDbPolyline
 90
        3
 70
     0
 43
0.00591
 10
6.43487
 20
4.00269
 10
6.43487
 20
3.9771
 10
6.405419999999999
 20
3.9771
  0
LWPOLYLINE
  5
D5E
330
36
100
AcDbEntity
  8
L6-SILK_PHO
100
AcDbPolyline
 90
        3
 70
     0
 43
0.00591
 10
6.43487
 20
4.069619999999999
 10
6.43487
 20
4.095209999999999
 10
6.405419999999999
 20
4.095209999999999
  0
LWPOLYLINE
  5
D63
330
36
100
AcDbEntity
  8
L6-SILK_PHO
100
AcDbPolyline
 90
        5
 70
     0
 43
0.00591
 10
5.408869999999999
 20
4.626549999999999
 10
5.48761
 20
4.626549999999999
 10
5.48761
 20
4.665919999999999
 10
5.408869999999999
 20
4.665919999999999
 10
5.408869999999999
 20
4.626549999999999
  0
LWPOLYLINE
  5
D6A
330
36
100
AcDbEntity
  8
L6-SILK_PHO
100
AcDbPolyline
 90
        5
 70
     0
 43
0.00591
 10
5.817719999999999
 20
4.02319
 10
5.73898
 20
4.02319
 10
5.73898
 20
3.983819999999999
 10
5.817719999999999
 20
3.983819999999999
 10
5.817719999999999
 20
4.02319
  0
LWPOLYLINE
  5
D78
330
36
100
AcDbEntity
  8
L6-SILK_PHO
100
AcDbPolyline
 90
        5
 70
     0
 43
0.00591
 10
5.814019999999999
 20
4.47503
 10
5.892759999999999
 20
4.47503
 10
5.892759999999999
 20
4.5144
 10
5.814019999999999
 20
4.5144
 10
5.814019999999999
 20
4.47503
  0
LWPOLYLINE
  5
D7F
330
36
100
AcDbEntity
  8
L6-SILK_PHO
100
AcDbPolyline
 90
        5
 70
     0
 43
0.00591
 10
5.68689
 20
4.47987
 10
5.60815
 20
4.47987
 10
5.60815
 20
4.4405
 10
5.68689
 20
4.4405
 10
5.68689
 20
4.47987
  0
LWPOLYLINE
  5
D86
330
36
100
AcDbEntity
  8
L6-SILK_PHO
100
AcDbPolyline
 90
        5
 70
     0
 43
0.00591
 10
5.68689
 20
4.439549999999999
 10
5.60815
 20
4.439549999999999
 10
5.60815
 20
4.40018
 10
5.68689
 20
4.40018
 10
5.68689
 20
4.439549999999999
  0
LWPOLYLINE
  5
D94
330
36
100
AcDbEntity
  8
L6-SILK_PHO
100
AcDbPolyline
 90
        5
 70
     0
 43
0.00591
 10
5.57818
 20
4.68538
 10
5.57818
 20
4.76412
 10
5.538809999999999
 20
4.76412
 10
5.538809999999999
 20
4.68538
 10
5.57818
 20
4.68538
  0
LWPOLYLINE
  5
D9B
330
36
100
AcDbEntity
  8
L6-SILK_PHO
100
AcDbPolyline
 90
        5
 70
     0
 43
0.00591
 10
5.343989999999999
 20
4.41399
 10
5.265249999999999
 20
4.41399
 10
5.265249999999999
 20
4.374619999999999
 10
5.343989999999999
 20
4.374619999999999
 10
5.343989999999999
 20
4.41399
  0
LWPOLYLINE
  5
DA2
330
36
100
AcDbEntity
  8
L6-SILK_PHO
100
AcDbPolyline
 90
        5
 70
     0
 43
0.00591
 10
5.16694
 20
4.18608
 10
5.16694
 20
4.107339999999999
 10
5.20631
 20
4.107339999999999
 10
5.20631
 20
4.18608
 10
5.16694
 20
4.18608
  0
LWPOLYLINE
  5
DA9
330
36
100
AcDbEntity
  8
L6-SILK_PHO
100
AcDbPolyline
 90
        5
 70
     0
 43
0.00591
 10
5.125239999999999
 20
4.18608
 10
5.125239999999999
 20
4.107339999999999
 10
5.164609999999999
 20
4.107339999999999
 10
5.164609999999999
 20
4.18608
 10
5.125239999999999
 20
4.18608
  0
LWPOLYLINE
  5
DB0
330
36
100
AcDbEntity
  8
L6-SILK_PHO
100
AcDbPolyline
 90
        5
 70
     0
 43
0.00591
 10
5.657199999999999
 20
4.55948
 10
5.657199999999999
 20
4.638219999999999
 10
5.61783
 20
4.638219999999999
 10
5.61783
 20
4.55948
 10
5.657199999999999
 20
4.55948
  0
LWPOLYLINE
  5
DB7
330
36
100
AcDbEntity
  8
L6-SILK_PHO
100
AcDbPolyline
 90
        5
 70
     0
 43
0.00591
 10
5.61678
 20
4.53486
 10
5.61678
 20
4.613599999999999
 10
5.577409999999999
 20
4.613599999999999
 10
5.577409999999999
 20
4.53486
 10
5.61678
 20
4.53486
  0
LWPOLYLINE
  5
DBE
330
36
100
AcDbEntity
  8
L6-SILK_PHO
100
AcDbPolyline
 90
        5
 70
     0
 43
0.00591
 10
6.244629999999999
 20
4.677699999999999
 10
6.244629999999999
 20
4.598959999999999
 10
6.283999999999999
 20
4.598959999999999
 10
6.283999999999999
 20
4.677699999999999
 10
6.244629999999999
 20
4.677699999999999
  0
LWPOLYLINE
  5
DC5
330
36
100
AcDbEntity
  8
L6-SILK_PHO
100
AcDbPolyline
 90
        5
 70
     0
 43
0.00591
 10
5.36614
 20
4.29208
 10
5.36614
 20
4.21334
 10
5.405509999999999
 20
4.21334
 10
5.405509999999999
 20
4.29208
 10
5.36614
 20
4.29208
  0
LWPOLYLINE
  5
DCC
330
36
100
AcDbEntity
  8
L6-SILK_PHO
100
AcDbPolyline
 90
        5
 70
     0
 43
0.00591
 10
5.407549999999999
 20
4.229019999999999
 10
5.407549999999999
 20
4.15028
 10
5.446919999999999
 20
4.15028
 10
5.446919999999999
 20
4.229019999999999
 10
5.407549999999999
 20
4.229019999999999
  0
LWPOLYLINE
  5
DD3
330
36
100
AcDbEntity
  8
L6-SILK_PHO
100
AcDbPolyline
 90
        5
 70
     0
 43
0.00591
 10
5.460549999999999
 20
4.56024
 10
5.460549999999999
 20
4.481499999999999
 10
5.499919999999999
 20
4.481499999999999
 10
5.499919999999999
 20
4.56024
 10
5.460549999999999
 20
4.56024
  0
LWPOLYLINE
  5
DDA
330
36
100
AcDbEntity
  8
L6-SILK_PHO
100
AcDbPolyline
 90
        5
 70
     0
 43
0.00591
 10
6.243599999999999
 20
4.678809999999999
 10
6.16486
 20
4.678809999999999
 10
6.16486
 20
4.63944
 10
6.243599999999999
 20
4.63944
 10
6.243599999999999
 20
4.678809999999999
  0
LWPOLYLINE
  5
DE1
330
36
100
AcDbEntity
  8
L6-SILK_PHO
100
AcDbPolyline
 90
        5
 70
     0
 43
0.00591
 10
6.576819999999999
 20
4.017769999999999
 10
6.498079999999999
 20
4.017769999999999
 10
6.498079999999999
 20
3.9784
 10
6.576819999999999
 20
3.9784
 10
6.576819999999999
 20
4.017769999999999
  0
LWPOLYLINE
  5
DE8
330
36
100
AcDbEntity
  8
L6-SILK_PHO
100
AcDbPolyline
 90
        5
 70
     0
 43
0.00591
 10
5.378009999999999
 20
4.604239999999999
 10
5.378009999999999
 20
4.5255
 10
5.41738
 20
4.5255
 10
5.41738
 20
4.604239999999999
 10
5.378009999999999
 20
4.604239999999999
  0
LWPOLYLINE
  5
DEF
330
36
100
AcDbEntity
  8
L6-SILK_PHO
100
AcDbPolyline
 90
        5
 70
     0
 43
0.00591
 10
6.498079999999999
 20
4.01874
 10
6.576819999999999
 20
4.01874
 10
6.576819999999999
 20
4.05811
 10
6.498079999999999
 20
4.05811
 10
6.498079999999999
 20
4.01874
  0
LWPOLYLINE
  5
DF6
330
36
100
AcDbEntity
  8
L6-SILK_PHO
100
AcDbPolyline
 90
        5
 70
     0
 43
0.00591
 10
6.368869999999999
 20
4.675959999999999
 10
6.44761
 20
4.675959999999999
 10
6.44761
 20
4.71533
 10
6.368869999999999
 20
4.71533
 10
6.368869999999999
 20
4.675959999999999
  0
LWPOLYLINE
  5
E24
330
36
100
AcDbEntity
  8
L6-SILK_PHO
100
AcDbPolyline
 90
        5
 70
     0
 43
0.00591
 10
5.072669999999999
 20
4.59803
 10
4.942819999999999
 20
4.59803
 10
4.942819999999999
 20
4.43588
 10
5.072669999999999
 20
4.43588
 10
5.072669999999999
 20
4.59803
  0
LWPOLYLINE
  5
E43
330
36
100
AcDbEntity
  8
L6-SILK_PHO
100
AcDbPolyline
 90
        5
 70
     0
 43
0.00591
 10
6.32535
 20
4.71533
 10
6.32535
 20
4.636589999999999
 10
6.364719999999999
 20
4.636589999999999
 10
6.364719999999999
 20
4.71533
 10
6.32535
 20
4.71533
  0
LWPOLYLINE
  5
E4A
330
36
100
AcDbEntity
  8
L6-SILK_PHO
100
AcDbPolyline
 90
        6
 70
     0
 43
0.00591
 10
5.912069999999999
 20
4.02228
 10
6.03018
 20
4.02228
 10
6.03018
 20
4.07268
 10
5.925849999999999
 20
4.07268
 10
5.912069999999999
 20
4.0589
 10
5.912069999999999
 20
4.02228
  0
LWPOLYLINE
  5
E52
330
36
100
AcDbEntity
  8
L6-SILK_PHO
100
AcDbPolyline
 90
        5
 70
     0
 43
0.00591
 10
4.23458
 20
4.76841
 10
4.23458
 20
4.63856
 10
4.39673
 20
4.63856
 10
4.39673
 20
4.76841
 10
4.23458
 20
4.76841
  0
LWPOLYLINE
  5
E59
330
36
100
AcDbEntity
  8
L6-SILK_PHO
100
AcDbPolyline
 90
        2
 70
     0
 43
0.00591
 10
4.31789
 20
4.20171
 10
4.377889999999999
 20
4.20171
  0
LWPOLYLINE
  5
E5D
330
36
100
AcDbEntity
  8
L6-SILK_PHO
100
AcDbPolyline
 90
        2
 70
     0
 43
0.00591
 10
4.31789
 20
4.16234
 10
4.377889999999999
 20
4.16234
  0
LWPOLYLINE
  5
E61
330
36
100
AcDbEntity
  8
L6-SILK_PHO
100
AcDbPolyline
 90
        2
 70
     0
 43
0.00591
 10
4.37938
 20
4.16234
 42
0.8200898
 10
4.37938
 20
4.20171
  0
LWPOLYLINE
  5
E65
330
36
100
AcDbEntity
  8
L6-SILK_PHO
100
AcDbPolyline
 90
        2
 70
     0
 43
0.00591
 10
4.316399999999999
 20
4.20171
 42
0.7806352
 10
4.31637
 20
4.16234
  0
LWPOLYLINE
  5
E69
330
36
100
AcDbEntity
  8
L6-SILK_PHO
100
AcDbPolyline
 90
        5
 70
     0
 43
0.00591
 10
4.84904
 20
4.061939999999999
 10
4.84904
 20
3.9832
 10
4.888409999999999
 20
3.9832
 10
4.888409999999999
 20
4.061939999999999
 10
4.84904
 20
4.061939999999999
  0
LWPOLYLINE
  5
E70
330
36
100
AcDbEntity
  8
L6-SILK_PHO
100
AcDbPolyline
 90
        5
 70
     0
 43
0.00591
 10
4.96391
 20
4.173459999999999
 10
5.04265
 20
4.173459999999999
 10
5.04265
 20
4.21283
 10
4.96391
 20
4.21283
 10
4.96391
 20
4.173459999999999
  0
LWPOLYLINE
  5
E77
330
36
100
AcDbEntity
  8
L6-SILK_PHO
100
AcDbPolyline
 90
        5
 70
     0
 43
0.00591
 10
4.96391
 20
4.06059
 10
5.04265
 20
4.06059
 10
5.04265
 20
4.09996
 10
4.96391
 20
4.09996
 10
4.96391
 20
4.06059
  0
LWPOLYLINE
  5
E85
330
36
100
AcDbEntity
  8
L6-SILK_PHO
100
AcDbPolyline
 90
        5
 70
     0
 43
0.00591
 10
5.125239999999999
 20
4.26714
 10
5.125239999999999
 20
4.188399999999999
 10
5.164609999999999
 20
4.188399999999999
 10
5.164609999999999
 20
4.26714
 10
5.125239999999999
 20
4.26714
  0
LWPOLYLINE
  5
E8C
330
36
100
AcDbEntity
  8
L6-SILK_PHO
100
AcDbPolyline
 90
        5
 70
     0
 43
0.00591
 10
6.2582
 20
4.15756
 10
6.179459999999999
 20
4.15756
 10
6.179459999999999
 20
4.11819
 10
6.2582
 20
4.11819
 10
6.2582
 20
4.15756
  0
LWPOLYLINE
  5
E93
330
36
100
AcDbEntity
  8
L6-SILK_PHO
100
AcDbPolyline
 90
        5
 70
     0
 43
0.00591
 10
4.707259999999999
 20
4.730339999999999
 10
4.60883
 20
4.730339999999999
 10
4.60883
 20
4.641359999999999
 10
4.707259999999999
 20
4.641359999999999
 10
4.707259999999999
 20
4.730339999999999
  0
LWPOLYLINE
  5
E9A
330
36
100
AcDbEntity
  8
L6-SILK_PHO
100
AcDbPolyline
 90
        2
 70
     0
 43
0.00591
 10
4.658039999999999
 20
4.72916
 10
4.658039999999999
 20
4.644509999999999
  0
LWPOLYLINE
  5
E9E
330
36
100
AcDbEntity
  8
L6-SILK_PHO
100
AcDbPolyline
 90
        5
 70
     0
 43
0.00591
 10
4.587439999999999
 20
3.98001
 10
4.685869999999999
 20
3.98001
 10
4.685869999999999
 20
4.06899
 10
4.587439999999999
 20
4.06899
 10
4.587439999999999
 20
3.98001
  0
LWPOLYLINE
  5
EA5
330
36
100
AcDbEntity
  8
L6-SILK_PHO
100
AcDbPolyline
 90
        2
 70
     0
 43
0.00591
 10
4.63665
 20
3.98119
 10
4.63665
 20
4.06584
  0
LWPOLYLINE
  5
EA9
330
36
100
AcDbEntity
  8
L6-SILK_PHO
100
AcDbPolyline
 90
        5
 70
     0
 43
0.00591
 10
4.594699999999999
 20
4.730339999999999
 10
4.496269999999999
 20
4.730339999999999
 10
4.496269999999999
 20
4.641359999999999
 10
4.594699999999999
 20
4.641359999999999
 10
4.594699999999999
 20
4.730339999999999
  0
LWPOLYLINE
  5
EB0
330
36
100
AcDbEntity
  8
L6-SILK_PHO
100
AcDbPolyline
 90
        2
 70
     0
 43
0.00591
 10
4.54549
 20
4.72916
 10
4.54549
 20
4.644509999999999
  0
LWPOLYLINE
  5
EB4
330
36
100
AcDbEntity
  8
L6-SILK_PHO
100
AcDbPolyline
 90
        5
 70
     0
 43
0.00591
 10
5.057299999999999
 20
4.42109
 10
4.95887
 20
4.42109
 10
4.95887
 20
4.33211
 10
5.057299999999999
 20
4.33211
 10
5.057299999999999
 20
4.42109
  0
LWPOLYLINE
  5
EBB
330
36
100
AcDbEntity
  8
L6-SILK_PHO
100
AcDbPolyline
 90
        2
 70
     0
 43
0.00591
 10
5.00808
 20
4.419909999999999
 10
5.00808
 20
4.335259999999999
  0
LWPOLYLINE
  5
EBF
330
36
100
AcDbEntity
  8
L6-SILK_PHO
100
AcDbPolyline
 90
        5
 70
     0
 43
0.00591
 10
4.218369999999999
 20
4.50203
 10
4.32861
 20
4.50203
 10
4.32861
 20
4.55243
 10
4.218369999999999
 20
4.55243
 10
4.218369999999999
 20
4.50203
  0
LWPOLYLINE
  5
EC6
330
36
100
AcDbEntity
  8
L6-SILK_PHO
100
AcDbPolyline
 90
        2
 70
     0
 43
0.00591
 10
4.43459
 20
4.19245
 10
4.43459
 20
4.13245
  0
LWPOLYLINE
  5
ECA
330
36
100
AcDbEntity
  8
L6-SILK_PHO
100
AcDbPolyline
 90
        2
 70
     0
 43
0.00591
 10
4.39522
 20
4.19245
 10
4.39522
 20
4.13245
  0
LWPOLYLINE
  5
ECE
330
36
100
AcDbEntity
  8
L6-SILK_PHO
100
AcDbPolyline
 90
        2
 70
     0
 43
0.00591
 10
4.39522
 20
4.130959999999999
 42
0.8200930000000001
 10
4.43459
 20
4.130959999999999
  0
LWPOLYLINE
  5
ED2
330
36
100
AcDbEntity
  8
L6-SILK_PHO
100
AcDbPolyline
 90
        2
 70
     0
 43
0.00591
 10
4.434599999999999
 20
4.19394
 42
0.7806352
 10
4.39523
 20
4.193969999999999
  0
LWPOLYLINE
  5
ED6
330
36
100
AcDbEntity
  8
L6-SILK_PHO
100
AcDbPolyline
 90
        2
 70
     0
 43
0.00591
 10
4.303099999999999
 20
4.192339999999999
 10
4.303099999999999
 20
4.13234
  0
LWPOLYLINE
  5
EDA
330
36
100
AcDbEntity
  8
L6-SILK_PHO
100
AcDbPolyline
 90
        2
 70
     0
 43
0.00591
 10
4.26373
 20
4.192339999999999
 10
4.26373
 20
4.13234
  0
LWPOLYLINE
  5
EDE
330
36
100
AcDbEntity
  8
L6-SILK_PHO
100
AcDbPolyline
 90
        2
 70
     0
 43
0.00591
 10
4.26373
 20
4.13084
 42
0.8200930000000001
 10
4.303099999999999
 20
4.13084
  0
LWPOLYLINE
  5
EE2
330
36
100
AcDbEntity
  8
L6-SILK_PHO
100
AcDbPolyline
 90
        2
 70
     0
 43
0.00591
 10
4.303099999999999
 20
4.193819999999999
 42
0.7806352
 10
4.26373
 20
4.19385
  0
LWPOLYLINE
  5
EE6
330
36
100
AcDbEntity
  8
L6-SILK_PHO
100
AcDbPolyline
 90
        5
 70
     0
 43
0.00591
 10
4.27923
 20
4.308139999999999
 10
4.27923
 20
4.48885
 10
4.18867
 20
4.48885
 10
4.18867
 20
4.308139999999999
 10
4.27923
 20
4.308139999999999
  0
LWPOLYLINE
  5
EED
330
36
100
AcDbEntity
  8
L6-SILK_PHO
100
AcDbPolyline
 90
        2
 70
     0
 43
0.00591
 10
4.27923
 20
4.315209999999999
 10
4.18867
 20
4.315209999999999
  0
LWPOLYLINE
  5
EF1
330
36
100
AcDbEntity
  8
L6-SILK_PHO
100
AcDbPolyline
 90
        5
 70
     0
 43
0.00394
 10
5.939449999999999
 20
4.594369999999999
 10
6.541809999999999
 20
4.594369999999999
 10
6.541809999999999
 20
4.161299999999999
 10
5.939449999999999
 20
4.161299999999999
 10
5.939449999999999
 20
4.594369999999999
  0
LWPOLYLINE
  5
EF8
330
36
100
AcDbEntity
  8
L6-SILK_PHO
100
AcDbPolyline
 90
        2
 70
     0
 43
0.00394
 10
5.9977
 20
4.594319999999999
 10
5.93942
 20
4.536039999999999
  0
LWPOLYLINE
  5
EFC
330
36
100
AcDbEntity
  8
L6-SILK_PHO
100
AcDbPolyline
 90
        6
 70
     0
 43
0.00394
 10
4.158649999999999
 20
4.515839999999999
 10
4.158649999999999
 20
4.56496
 10
3.940549999999999
 20
4.56496
 10
3.940549999999999
 20
4.25
 10
4.158649999999999
 20
4.25
 10
4.158649999999999
 20
4.313039999999999
  0
LWPOLYLINE
  5
F04
330
36
100
AcDbEntity
  8
L6-SILK_PHO
100
AcDbPolyline
 90
        2
 70
     0
 43
0.00394
 10
3.96133
 20
4.24978
 10
3.96133
 20
4.56479
  0
LWPOLYLINE
  5
172E
330
36
100
AcDbEntity
  8
L6-SILK_PHO
100
AcDbPolyline
 90
        2
 70
     0
 43
0.00004
 10
3.937009999999999
 20
3.972449999999999
 42
0.3878135999999999
 10
3.972449999999999
 20
3.937009999999999
  0
LWPOLYLINE
  5
1732
330
36
100
AcDbEntity
  8
L6-SILK_PHO
100
AcDbPolyline
 90
        2
 70
     0
 43
0.00004
 10
3.97244
 20
3.937009999999999
 10
6.716539999999999
 20
3.937009999999999
  0
LWPOLYLINE
  5
1736
330
36
100
AcDbEntity
  8
L6-SILK_PHO
100
AcDbPolyline
 90
        2
 70
     0
 43
0.00004
 10
6.716549999999999
 20
3.937009999999999
 42
0.3838488
 10
6.75197
 20
3.97243
  0
LWPOLYLINE
  5
173A
330
36
100
AcDbEntity
  8
L6-SILK_PHO
100
AcDbPolyline
 90
        2
 70
     0
 43
0.00004
 10
6.75197
 20
3.97244
 10
6.75197
 20
4.842519999999999
  0
LWPOLYLINE
  5
173E
330
36
100
AcDbEntity
  8
L6-SILK_PHO
100
AcDbPolyline
 90
        2
 70
     0
 43
0.00004
 10
6.75197
 20
4.842509999999999
 42
0.3336009
 10
6.714879999999999
 20
4.87795
  0
LWPOLYLINE
  5
1742
330
36
100
AcDbEntity
  8
L6-SILK_PHO
100
AcDbPolyline
 90
        2
 70
     0
 43
0.00004
 10
6.714879999999999
 20
4.87795
 10
3.97244
 20
4.87795
  0
LWPOLYLINE
  5
1746
330
36
100
AcDbEntity
  8
L6-SILK_PHO
100
AcDbPolyline
 90
        2
 70
     0
 43
0.00004
 10
3.972409999999999
 20
4.87795
 42
0.4045754000000001
 10
3.937009999999999
 20
4.84248
  0
LWPOLYLINE
  5
174A
330
36
100
AcDbEntity
  8
L6-SILK_PHO
100
AcDbPolyline
 90
        2
 70
     0
 43
0.00004
 10
3.937009999999999
 20
4.842519999999999
 10
3.937009999999999
 20
3.97244
  0
LWPOLYLINE
  5
174E
330
36
100
AcDbEntity
  8
L6-SILK_PHO
100
AcDbPolyline
 90
        2
 70
     1
 43
0.00004
 10
6.63211
 20
4.78662
 42
1.0
 10
6.733989999999999
 20
4.78662
 42
1.0
  0
LWPOLYLINE
  5
1752
330
36
100
AcDbEntity
  8
L6-SILK_PHO
100
AcDbPolyline
 90
        2
 70
     1
 43
0.00004
 10
6.63061
 20
4.04084
 42
1.0
 10
6.733069999999999
 20
4.04084
 42
1.0
  0
ENDSEC
  0
SECTION
  2
OBJECTS
  0
DICTIONARY
  5
C
330
0
100
AcDbDictionary
281
     1
  3
ACAD_COLOR
350
2F
  3
ACAD_GROUP
350
D
  3
ACAD_LAYOUT
350
2E
  3
ACAD_MATERIAL
350
10
  3
ACAD_MLINESTYLE
350
2B
  3
ACAD_PLOTSETTINGS
350
2D
  3
ACAD_PLOTSTYLENAME
350
E
  3
ACAD_TABLESTYLE
350
30
  3
ACAD_VISUALSTYLE
350
14
  3
AcDbVariableDictionary
350
1758
  0
DICTIONARY
  5
2F
102
{ACAD_REACTORS
330
C
102
}
330
C
100
AcDbDictionary
281
     1
  0
DICTIONARY
  5
D
102
{ACAD_REACTORS
330
C
102
}
330
C
100
AcDbDictionary
281
     1
  0
DICTIONARY
  5
2E
102
{ACAD_REACTORS
330
C
102
}
330
C
100
AcDbDictionary
281
     1
  3
Model
350
39
  3
1
350
35
  0
DICTIONARY
  5
10
102
{ACAD_REACTORS
330
C
102
}
330
C
100
AcDbDictionary
281
     1
  3
ByBlock
350
12
  3
ByLayer
350
11
  3
Global
350
13
  0
DICTIONARY
  5
2B
102
{ACAD_REACTORS
330
C
102
}
330
C
100
AcDbDictionary
281
     1
  3
Standard
350
2C
  0
DICTIONARY
  5
2D
102
{ACAD_REACTORS
330
C
102
}
330
C
100
AcDbDictionary
281
     1
  0
ACDBDICTIONARYWDFLT
  5
E
102
{ACAD_REACTORS
330
C
102
}
330
C
100
AcDbDictionary
281
     1
  3
Normal
350
F
100
AcDbDictionaryWithDefault
340
F
  0
DICTIONARY
  5
30
102
{ACAD_REACTORS
330
C
102
}
330
C
100
AcDbDictionary
281
     1
  3
Standard
350
31
  0
DICTIONARY
  5
14
102
{ACAD_REACTORS
330
C
102
}
330
C
100
AcDbDictionary
281
     1
  3
2dWireframe
350
1A
  3
3D Hidden
350
1C
  3
3dWireframe
350
1B
  3
Basic
350
19
  3
Brighten
350
20
  3
ColorChange
350
24
  3
Conceptual
350
1D
  3
Dim
350
1F
  3
Facepattern
350
23
  3
Flat
350
15
  3
FlatWithEdges
350
16
  3
Gouraud
350
17
  3
GouraudWithEdges
350
18
  3
Linepattern
350
22
  3
Realistic
350
1E
  3
Thicken
350
21
  0
DICTIONARY
  5
1758
102
{ACAD_REACTORS
330
C
102
}
330
C
100
AcDbDictionary
281
     1
  3
CTABLESTYLE
350
1759
  0
LAYOUT
  5
39
102
{ACAD_REACTORS
330
2E
102
}
330
2E
100
AcDbPlotSettings
  1

  2
pdfFactory Pro
  4

  6

 40
0.0
 41
0.0
 42
0.0
 43
0.0
 44
0.0
 45
0.0
 46
0.0
 47
0.0
 48
0.0
 49
0.0
140
0.0
141
0.0
142
1.0
143
1.0
 70
  1712
 72
     0
 73
     0
 74
     0
  7

 75
     0
147
1.0
 76
     0
 77
     2
 78
   300
148
0.0
149
0.0
100
AcDbLayout
  1
Model
 70
     1
 71
     0
 10
0.0
 20
0.0
 11
12.0
 21
9.0
 12
0.0
 22
0.0
 32
0.0
 14
0.0
 24
0.0
 34
0.0
 15
0.0
 25
0.0
 35
0.0
146
0.0
 13
0.0
 23
0.0
 33
0.0
 16
1.0
 26
0.0
 36
0.0
 17
0.0
 27
1.0
 37
0.0
 76
     0
330
36
331
3E
  0
LAYOUT
  5
35
102
{ACAD_REACTORS
330
2E
102
}
330
2E
100
AcDbPlotSettings
  1

  2
pdfFactory Pro
  4

  6

 40
0.0
 41
0.0
 42
0.0
 43
0.0
 44
0.0
 45
0.0
 46
0.0
 47
0.0
 48
0.0
 49
0.0
140
0.0
141
0.0
142
1.0
143
1.0
 70
   688
 72
     0
 73
     0
 74
     5
  7

 75
    16
147
1.0
 76
     0
 77
     2
 78
   300
148
0.0
149
0.0
100
AcDbLayout
  1
1
 70
     1
 71
     1
 10
0.0
 20
0.0
 11
12.0
 21
9.0
 12
0.0
 22
0.0
 32
0.0
 14
1.000000000000000E+20
 24
1.000000000000000E+20
 34
1.000000000000000E+20
 15
-1.000000000000000E+20
 25
-1.000000000000000E+20
 35
-1.000000000000000E+20
146
0.0
 13
0.0
 23
0.0
 33
0.0
 16
1.0
 26
0.0
 36
0.0
 17
0.0
 27
1.0
 37
0.0
 76
     0
330
32
  0
MATERIAL
  5
12
102
{ACAD_XDICTIONARY
360
175C
102
}
102
{ACAD_REACTORS
330
10
102
}
330
10
100
AcDbMaterial
  1
ByBlock
  0
MATERIAL
  5
11
102
{ACAD_XDICTIONARY
360
175A
102
}
102
{ACAD_REACTORS
330
10
102
}
330
10
100
AcDbMaterial
  1
ByLayer
  0
MATERIAL
  5
13
102
{ACAD_XDICTIONARY
360
175E
102
}
102
{ACAD_REACTORS
330
10
102
}
330
10
100
AcDbMaterial
  1
Global
  0
MLINESTYLE
  5
2C
102
{ACAD_REACTORS
330
2B
102
}
330
2B
100
AcDbMlineStyle
  2
STANDARD
 70
     0
  3

 62
   256
 51
90.0
 52
90.0
 71
     2
 49
0.5
 62
   256
  6
BYLAYER
 49
-0.5
 62
   256
  6
BYLAYER
  0
ACDBPLACEHOLDER
  5
F
102
{ACAD_REACTORS
330
E
102
}
330
E
  0
TABLESTYLE
  5
31
102
{ACAD_XDICTIONARY
360
1760
102
}
102
{ACAD_REACTORS
330
30
102
}
330
30
100
AcDbTableStyle
  3
Standard
 70
     0
 71
     0
 40
0.06
 41
0.06
280
     0
281
     0
  7
Standard
140
0.18
170
     2
 62
     0
 63
     7
283
     0
274
    -2
284
     1
 64
     0
275
    -2
285
     1
 65
     0
276
    -2
286
     1
 66
     0
277
    -2
287
     1
 67
     0
278
    -2
288
     1
 68
     0
279
    -2
289
     1
 69
     0
  7
Standard
140
0.25
170
     5
 62
     0
 63
     7
283
     0
274
    -2
284
     1
 64
     0
275
    -2
285
     1
 65
     0
276
    -2
286
     1
 66
     0
277
    -2
287
     1
 67
     0
278
    -2
288
     1
 68
     0
279
    -2
289
     1
 69
     0
  7
Standard
140
0.18
170
     5
 62
     0
 63
     7
283
     0
274
    -2
284
     1
 64
     0
275
    -2
285
     1
 65
     0
276
    -2
286
     1
 66
     0
277
    -2
287
     1
 67
     0
278
    -2
288
     1
 68
     0
279
    -2
289
     1
 69
     0
  0
VISUALSTYLE
  5
1A
102
{ACAD_REACTORS
330
14
102
}
330
14
100
AcDbVisualStyle
  2
2dWireframe
 70
     4
 71
     0
 72
     2
 73
     0
 90
        0
 40
-0.6
 41
-30.0
 62
     5
 63
     7
421
 16777215
 74
     1
 91
        4
 64
     7
 65
   257
 75
     1
175
     1
 42
1.0
 92
        0
 66
   257
 43
1.0
 76
     1
 77
     6
 78
     2
 67
     7
 79
     5
170
     0
171
     0
290
     0
174
     0
 93
        1
 44
0.0
173
     0
291
     0
 45
0.0
1001
ACAD
1000
AcDbSavedByObjectVersion
1070
     0
  0
VISUALSTYLE
  5
1C
102
{ACAD_REACTORS
330
14
102
}
330
14
100
AcDbVisualStyle
  2
3D Hidden
 70
     6
 71
     1
 72
     2
 73
     2
 90
        0
 40
-0.6
 41
-30.0
 62
     5
 63
     7
421
 16777215
 74
     2
 91
        2
 64
     7
 65
   257
 75
     2
175
     1
 42
40.0
 92
        0
 66
   257
 43
1.0
 76
     1
 77
     6
 78
     2
 67
     7
 79
     3
170
     0
171
     0
290
     0
174
     0
 93
        1
 44
0.0
173
     0
291
     0
 45
0.0
1001
ACAD
1000
AcDbSavedByObjectVersion
1070
     0
  0
VISUALSTYLE
  5
1B
102
{ACAD_REACTORS
330
14
102
}
330
14
100
AcDbVisualStyle
  2
3dWireframe
 70
     5
 71
     0
 72
     2
 73
     0
 90
        0
 40
-0.6
 41
-30.0
 62
     5
 63
     7
421
 16777215
 74
     1
 91
        4
 64
     7
 65
   257
 75
     1
175
     1
 42
1.0
 92
        0
 66
   257
 43
1.0
 76
     1
 77
     6
 78
     2
 67
     7
 79
     5
170
     0
171
     0
290
     0
174
     0
 93
        1
 44
0.0
173
     0
291
     0
 45
0.0
1001
ACAD
1000
AcDbSavedByObjectVersion
1070
     0
  0
VISUALSTYLE
  5
19
102
{ACAD_REACTORS
330
14
102
}
330
14
100
AcDbVisualStyle
  2
Basic
 70
     7
 71
     1
 72
     0
 73
     1
 90
        0
 40
-0.6
 41
-30.0
 62
     5
 63
     7
421
 16777215
 74
     0
 91
        4
 64
     7
 65
   257
 75
     1
175
     1
 42
1.0
 92
        8
 66
     7
 43
1.0
 76
     1
 77
     6
 78
     2
 67
     7
 79
     5
170
     0
171
     0
290
     0
174
     0
 93
        1
 44
0.0
173
     0
291
     1
 45
0.0
1001
ACAD
1000
AcDbSavedByObjectVersion
1070
     0
  0
VISUALSTYLE
  5
20
102
{ACAD_REACTORS
330
14
102
}
330
14
100
AcDbVisualStyle
  2
Brighten
 70
    12
 71
     2
 72
     2
 73
     0
 90
        0
 40
-0.6
 41
-30.0
 62
     5
 63
     7
421
 16777215
 74
     1
 91
        4
 64
     7
 65
   257
 75
     1
175
     1
 42
1.0
 92
        8
 66
     7
 43
1.0
 76
     1
 77
     6
 78
     2
 67
     7
 79
     5
170
     0
171
     0
290
     0
174
     0
 93
        1
 44
50.0
173
     0
291
     1
 45
0.0
1001
ACAD
1000
AcDbSavedByObjectVersion
1070
     0
  0
VISUALSTYLE
  5
24
102
{ACAD_REACTORS
330
14
102
}
330
14
100
AcDbVisualStyle
  2
ColorChange
 70
    16
 71
     2
 72
     2
 73
     3
 90
        0
 40
-0.6
 41
-30.0
 62
     5
 63
     8
421
  8421504
 74
     1
 91
        4
 64
     7
 65
   257
 75
     1
175
     1
 42
1.0
 92
        8
 66
     8
424
  8421504
 43
1.0
 76
     1
 77
     6
 78
     2
 67
     7
 79
     5
170
     0
171
     0
290
     0
174
     0
 93
        1
 44
0.0
173
     0
291
     1
 45
0.0
1001
ACAD
1000
AcDbSavedByObjectVersion
1070
     0
  0
VISUALSTYLE
  5
1D
102
{ACAD_REACTORS
330
14
102
}
330
14
100
AcDbVisualStyle
  2
Conceptual
 70
     9
 71
     3
 72
     2
 73
     0
 90
        0
 40
-0.6
 41
-30.0
 62
     5
 63
     7
421
 16777215
 74
     2
 91
        2
 64
     7
 65
   257
 75
     1
175
     1
 42
40.0
 92
        8
 66
     7
 43
1.0
 76
     1
 77
     6
 78
     2
 67
     7
 79
     3
170
     0
171
     0
290
     0
174
     0
 93
        1
 44
0.0
173
     0
291
     0
 45
0.0
1001
ACAD
1000
AcDbSavedByObjectVersion
1070
     0
  0
VISUALSTYLE
  5
1F
102
{ACAD_REACTORS
330
14
102
}
330
14
100
AcDbVisualStyle
  2
Dim
 70
    11
 71
     2
 72
     2
 73
     0
 90
        0
 40
-0.6
 41
-30.0
 62
     5
 63
     7
421
 16777215
 74
     1
 91
        4
 64
     7
 65
   257
 75
     1
175
     1
 42
1.0
 92
        8
 66
     7
 43
1.0
 76
     1
 77
     6
 78
     2
 67
     7
 79
     5
170
     0
171
     0
290
     0
174
     0
 93
        1
 44
-50.0
173
     0
291
     1
 45
0.0
1001
ACAD
1000
AcDbSavedByObjectVersion
1070
     0
  0
VISUALSTYLE
  5
23
102
{ACAD_REACTORS
330
14
102
}
330
14
100
AcDbVisualStyle
  2
Facepattern
 70
    15
 71
     2
 72
     2
 73
     0
 90
        0
 40
-0.6
 41
-30.0
 62
     5
 63
     7
421
 16777215
 74
     1
 91
        4
 64
     7
 65
   257
 75
     1
175
     1
 42
1.0
 92
        8
 66
     7
 43
1.0
 76
     1
 77
     6
 78
     2
 67
     7
 79
     5
170
     0
171
     0
290
     0
174
     0
 93
        1
 44
0.0
173
     0
291
     1
 45
0.0
1001
ACAD
1000
AcDbSavedByObjectVersion
1070
     0
  0
VISUALSTYLE
  5
15
102
{ACAD_REACTORS
330
14
102
}
330
14
100
AcDbVisualStyle
  2
Flat
 70
     0
 71
     2
 72
     1
 73
     1
 90
        2
 40
-0.6
 41
30.0
 62
     5
 63
     7
421
 16777215
 74
     0
 91
        4
 64
     7
 65
   257
 75
     1
175
     1
 42
1.0
 92
        8
 66
     7
 43
1.0
 76
     1
 77
     6
 78
     2
 67
     7
 79
     5
170
     0
171
     0
290
     0
174
     0
 93
       13
 44
0.0
173
     0
291
     1
 45
0.0
1001
ACAD
1000
AcDbSavedByObjectVersion
1070
     0
  0
VISUALSTYLE
  5
16
102
{ACAD_REACTORS
330
14
102
}
330
14
100
AcDbVisualStyle
  2
FlatWithEdges
 70
     1
 71
     2
 72
     1
 73
     1
 90
        2
 40
-0.6
 41
30.0
 62
     5
 63
     7
421
 16777215
 74
     1
 91
        4
 64
     7
 65
   257
 75
     1
175
     1
 42
1.0
 92
        0
 66
   257
 43
1.0
 76
     1
 77
     6
 78
     2
 67
     7
 79
     5
170
     0
171
     0
290
     0
174
     0
 93
       13
 44
0.0
173
     0
291
     1
 45
0.0
1001
ACAD
1000
AcDbSavedByObjectVersion
1070
     0
  0
VISUALSTYLE
  5
17
102
{ACAD_REACTORS
330
14
102
}
330
14
100
AcDbVisualStyle
  2
Gouraud
 70
     2
 71
     2
 72
     2
 73
     1
 90
        2
 40
-0.6
 41
30.0
 62
     5
 63
     7
421
 16777215
 74
     0
 91
        4
 64
     7
 65
   257
 75
     1
175
     1
 42
1.0
 92
        0
 66
     7
 43
1.0
 76
     1
 77
     6
 78
     2
 67
     7
 79
     5
170
     0
171
     0
290
     0
174
     0
 93
       13
 44
0.0
173
     0
291
     1
 45
0.0
1001
ACAD
1000
AcDbSavedByObjectVersion
1070
     0
  0
VISUALSTYLE
  5
18
102
{ACAD_REACTORS
330
14
102
}
330
14
100
AcDbVisualStyle
  2
GouraudWithEdges
 70
     3
 71
     2
 72
     2
 73
     1
 90
        2
 40
-0.6
 41
30.0
 62
     5
 63
     7
421
 16777215
 74
     1
 91
        4
 64
     7
 65
   257
 75
     1
175
     1
 42
1.0
 92
        0
 66
   257
 43
1.0
 76
     1
 77
     6
 78
     2
 67
     7
 79
     5
170
     0
171
     0
290
     0
174
     0
 93
       13
 44
0.0
173
     0
291
     1
 45
0.0
1001
ACAD
1000
AcDbSavedByObjectVersion
1070
     0
  0
VISUALSTYLE
  5
22
102
{ACAD_REACTORS
330
14
102
}
330
14
100
AcDbVisualStyle
  2
Linepattern
 70
    14
 71
     2
 72
     2
 73
     0
 90
        0
 40
-0.6
 41
-30.0
 62
     5
 63
     7
421
 16777215
 74
     1
 91
        4
 64
     7
 65
   257
 75
     7
175
     7
 42
1.0
 92
        8
 66
     7
 43
1.0
 76
     1
 77
     6
 78
     2
 67
     7
 79
     5
170
     0
171
     0
290
     0
174
     0
 93
        1
 44
0.0
173
     0
291
     1
 45
0.0
1001
ACAD
1000
AcDbSavedByObjectVersion
1070
     0
  0
VISUALSTYLE
  5
1E
102
{ACAD_REACTORS
330
14
102
}
330
14
100
AcDbVisualStyle
  2
Realistic
 70
     8
 71
     2
 72
     2
 73
     0
 90
        0
 40
-0.6
 41
-30.0
 62
     5
 63
     7
421
 16777215
 74
     1
 91
        0
 64
     7
 65
   257
 75
     1
175
     1
 42
1.0
 92
        8
 66
     8
424
  7895160
 43
1.0
 76
     1
 77
     6
 78
     2
 67
     7
 79
     5
170
     0
171
     0
290
     0
174
     0
 93
       13
 44
0.0
173
     0
291
     0
 45
0.0
1001
ACAD
1000
AcDbSavedByObjectVersion
1070
     0
  0
VISUALSTYLE
  5
21
102
{ACAD_REACTORS
330
14
102
}
330
14
100
AcDbVisualStyle
  2
Thicken
 70
    13
 71
     2
 72
     2
 73
     0
 90
        0
 40
-0.6
 41
-30.0
 62
     5
 63
     7
421
 16777215
 74
     1
 91
        4
 64
     7
 65
   257
 75
     1
175
     1
 42
1.0
 92
       12
 66
     7
 43
1.0
 76
     1
 77
     6
 78
     2
 67
     7
 79
     5
170
     0
171
     0
290
     0
174
     0
 93
        1
 44
0.0
173
     0
291
     1
 45
0.0
1001
ACAD
1000
AcDbSavedByObjectVersion
1070
     0
  0
DICTIONARYVAR
  5
1759
102
{ACAD_REACTORS
330
1758
102
}
330
1758
100
DictionaryVariables
280
     0
  1
STANDARD
  0
DICTIONARY
  5
175C
330
12
100
AcDbDictionary
280
     1
281
     1
  3
ACAD_XREC_ROUNDTRIP
360
175D
  0
DICTIONARY
  5
175A
330
11
100
AcDbDictionary
280
     1
281
     1
  3
ACAD_XREC_ROUNDTRIP
360
175B
  0
DICTIONARY
  5
175E
330
13
100
AcDbDictionary
280
     1
281
     1
  3
ACAD_XREC_ROUNDTRIP
360
175F
  0
DICTIONARY
  5
1760
330
31
100
AcDbDictionary
280
     1
281
     1
  3
ACAD_XREC_ROUNDTRIP
360
1761
  0
XRECORD
  5
175D
102
{ACAD_REACTORS
330
175C
102
}
330
175C
100
AcDbXrecord
280
     1
102
MATERIAL
148
0.0
149
0.0
149
0.0
 93
        0
 94
       63
282
     0
 72
     1
 77
     1
171
     1
175
     1
179
     1
273
     0
  0
XRECORD
  5
175B
102
{ACAD_REACTORS
330
175A
102
}
330
175A
100
AcDbXrecord
280
     1
102
MATERIAL
148
0.0
149
0.0
149
0.0
 93
        0
 94
       63
282
     0
 72
     1
 77
     1
171
     1
175
     1
179
     1
273
     0
  0
XRECORD
  5
175F
102
{ACAD_REACTORS
330
175E
102
}
330
175E
100
AcDbXrecord
280
     1
102
MATERIAL
148
0.0
149
0.0
149
0.0
 93
        0
 94
       63
282
     0
 72
     1
 77
     1
171
     1
175
     1
179
     1
273
     0
  0
XRECORD
  5
1761
102
{ACAD_REACTORS
330
1760
102
}
330
1760
100
AcDbXrecord
280
     1
102
ACAD_ROUNDTRIP_PRE2007_TABLESTYLE
 90
      512
 91
        0
  1

 92
      512
 93
        0
  2

 94
      512
 95
        0
  3

  0
ENDSEC
  0
EOF
